<svg width="24" height="25" viewBox="0 0 24 25" fill="none" xmlns="http://www.w3.org/2000/svg">
<path d="M13.9998 21.7217H9.99977M17.9998 8.72168C17.9998 7.13038 17.3676 5.60426 16.2424 4.47904C15.1172 3.35382 13.5911 2.72168 11.9998 2.72168C10.4085 2.72168 8.88235 3.35382 7.75713 4.47904C6.63192 5.60426 5.99977 7.13038 5.99977 8.72168C5.99977 11.8119 5.22024 13.9276 4.34944 15.3271C3.6149 16.5076 3.24763 17.0978 3.2611 17.2624C3.27601 17.4448 3.31463 17.5143 3.46155 17.6233C3.59423 17.7217 4.19237 17.7217 5.38863 17.7217H18.6109C19.8072 17.7217 20.4053 17.7217 20.538 17.6233C20.6849 17.5143 20.7235 17.4448 20.7384 17.2624C20.7519 17.0978 20.3846 16.5076 19.6501 15.3271C18.7793 13.9276 17.9998 11.8119 17.9998 8.72168Z" stroke="white" stroke-width="1.6" stroke-linecap="round" stroke-linejoin="round"/>
</svg>
