<svg width="24" height="24" viewBox="0 0 24 24" fill="none" xmlns="http://www.w3.org/2000/svg">
<path fill-rule="evenodd" clip-rule="evenodd" d="M18.6931 3.97087C19.0837 3.58035 19.7168 3.58035 20.1073 3.97087C20.4979 4.3614 20.4979 4.99456 20.1073 5.38509L13.3139 12.1785L20.1012 18.9658C20.4917 19.3563 20.4917 19.9895 20.1012 20.38C19.7107 20.7705 19.0775 20.7705 18.687 20.38L11.8997 13.5927L5.11268 20.3798C4.72216 20.7703 4.08899 20.7703 3.69847 20.3798C3.30795 19.9892 3.30795 19.3561 3.69847 18.9655L10.4855 12.1785L3.69231 5.38535C3.30178 4.99482 3.30178 4.36166 3.69231 3.97113C4.08283 3.58061 4.716 3.58061 5.10652 3.97113L11.8997 10.7643L18.6931 3.97087Z" fill="#C5C5C6"/>
</svg>
