<svg width="31" height="30" viewBox="0 0 31 30" fill="none" xmlns="http://www.w3.org/2000/svg">
<path d="M14.7327 7.73848C14.9227 7.96059 15.2004 8.08846 15.4927 8.08846C15.7849 8.08846 16.0626 7.96059 16.2526 7.73848C18.2833 5.36435 21.5067 4.82317 23.9983 6.89408C26.5456 9.01127 26.8594 12.5986 24.8868 15.1369C23.9874 16.2942 22.1232 18.1519 20.1963 19.9708C18.3249 21.7371 16.4533 23.4121 15.4927 24.2635C14.532 23.4121 12.6604 21.7371 10.789 19.9708C8.86207 18.1519 6.99788 16.2942 6.09848 15.1369C4.13477 12.61 4.47657 9.03915 6.99739 6.88531C9.42849 4.80812 12.6944 5.35554 14.7327 7.73848Z" stroke="#5168F6" stroke-width="2" stroke-linecap="round" stroke-linejoin="round"/>
</svg>
