<svg width="85" height="85" viewBox="0 0 85 85" fill="none" xmlns="http://www.w3.org/2000/svg">
<g clip-path="url(#clip0_5375_5627)">
<path d="M18.8893 44.8611V25.9722H11.806C9.92737 25.9722 8.1257 26.7184 6.79732 28.0468C5.46893 29.3752 4.72266 31.1769 4.72266 33.0555V75.5555C4.72617 75.994 4.85173 76.4229 5.08527 76.794C5.3188 77.1652 5.65109 77.464 6.04488 77.6569C6.42426 77.8294 6.84255 77.8985 7.25725 77.857C7.67195 77.8155 8.06829 77.665 8.40599 77.4208L20.5657 68.4722H52.299C53.1939 68.4986 54.0847 68.3411 54.9162 68.0093C55.7477 67.6775 56.5023 67.1785 57.1331 66.5432C57.7639 65.908 58.2576 65.1499 58.5836 64.3161C58.9096 63.4823 59.0609 62.5904 59.0282 61.6958V59.0277H33.056C29.2988 59.0277 25.6954 57.5352 23.0386 54.8784C20.3819 52.2216 18.8893 48.6183 18.8893 44.8611Z" fill="url(#paint0_linear_5375_5627)"/>
<path d="M73.1949 9.44446H33.056C31.1774 9.44446 29.3757 10.1907 28.0473 11.5191C26.7189 12.8475 25.9727 14.6492 25.9727 16.5278V44.8611C25.9727 46.7397 26.7189 48.5414 28.0473 49.8698C29.3757 51.1982 31.1774 51.9445 33.056 51.9445H65.049L76.3352 60.7042C76.6707 60.9522 77.0659 61.107 77.4807 61.1526C77.8954 61.1982 78.3149 61.1331 78.6963 60.9639C79.0981 60.7725 79.4376 60.4715 79.6757 60.0955C79.9138 59.7196 80.0408 59.2839 80.0421 58.8389V16.5278C80.0431 14.6894 79.3293 12.9226 78.0516 11.6008C76.7739 10.279 75.0323 9.50574 73.1949 9.44446Z" fill="url(#paint1_linear_5375_5627)"/>
<path d="M60.5754 32.7299C60.5754 32.0821 60.8327 31.4608 61.2908 31.0028C61.7488 30.5447 62.3701 30.2874 63.0179 30.2874C63.6657 30.2874 64.287 30.5447 64.745 31.0028C65.2031 31.4608 65.4604 32.0821 65.4604 32.7299C65.4604 33.3777 65.2031 33.9989 64.745 34.457C64.287 34.9151 63.6657 35.1724 63.0179 35.1724C62.3701 35.1724 61.7488 34.9151 61.2908 34.457C60.8327 33.9989 60.5754 33.3777 60.5754 32.7299ZM50.8053 32.7299C50.8053 32.0821 51.0626 31.4608 51.5207 31.0028C51.9787 30.5447 52.6 30.2874 53.2478 30.2874C53.8956 30.2874 54.5169 30.5447 54.9749 31.0028C55.433 31.4608 55.6903 32.0821 55.6903 32.7299C55.6903 33.3777 55.433 33.9989 54.9749 34.457C54.5169 34.9151 53.8956 35.1724 53.2478 35.1724C52.6 35.1724 51.9787 34.9151 51.5207 34.457C51.0626 33.9989 50.8053 33.3777 50.8053 32.7299ZM41.0352 32.7299C41.0352 32.0821 41.2925 31.4608 41.7506 31.0028C42.2086 30.5447 42.8299 30.2874 43.4777 30.2874C44.1255 30.2874 44.7468 30.5447 45.2048 31.0028C45.6629 31.4608 45.9202 32.0821 45.9202 32.7299C45.9202 33.3777 45.6629 33.9989 45.2048 34.457C44.7468 34.9151 44.1255 35.1724 43.4777 35.1724C42.8299 35.1724 42.2086 34.9151 41.7506 34.457C41.2925 33.9989 41.0352 33.3777 41.0352 32.7299Z" fill="#EEF0FE"/>
</g>
<defs>
<linearGradient id="paint0_linear_5375_5627" x1="4.72266" y1="51.9204" x2="59.0326" y2="51.9204" gradientUnits="userSpaceOnUse">
<stop stop-color="#509DF7"/>
<stop offset="1" stop-color="#5168F6"/>
</linearGradient>
<linearGradient id="paint1_linear_5375_5627" x1="25.9727" y1="35.3056" x2="80.0421" y2="35.3056" gradientUnits="userSpaceOnUse">
<stop stop-color="#509DF7"/>
<stop offset="1" stop-color="#5168F6"/>
</linearGradient>
<clipPath id="clip0_5375_5627">
<rect width="85" height="85" fill="white"/>
</clipPath>
</defs>
</svg>
