<svg width="20" height="21" viewBox="0 0 20 21" fill="none" xmlns="http://www.w3.org/2000/svg">
<path d="M16.25 4.99121H14.0844L13.0195 3.39434C12.9625 3.30883 12.8852 3.23871 12.7946 3.1902C12.704 3.14169 12.6028 3.11627 12.5 3.11621H7.5C7.39721 3.11627 7.29602 3.14169 7.2054 3.1902C7.11478 3.23871 7.03752 3.30883 6.98047 3.39434L5.91484 4.99121H3.75C3.25272 4.99121 2.77581 5.18876 2.42417 5.54039C2.07254 5.89202 1.875 6.36893 1.875 6.86621V15.6162C1.875 16.1135 2.07254 16.5904 2.42417 16.942C2.77581 17.2937 3.25272 17.4912 3.75 17.4912H16.25C16.7473 17.4912 17.2242 17.2937 17.5758 16.942C17.9275 16.5904 18.125 16.1135 18.125 15.6162V6.86621C18.125 6.36893 17.9275 5.89202 17.5758 5.54039C17.2242 5.18876 16.7473 4.99121 16.25 4.99121ZM16.875 15.6162C16.875 15.782 16.8092 15.9409 16.6919 16.0582C16.5747 16.1754 16.4158 16.2412 16.25 16.2412H3.75C3.58424 16.2412 3.42527 16.1754 3.30806 16.0582C3.19085 15.9409 3.125 15.782 3.125 15.6162V6.86621C3.125 6.70045 3.19085 6.54148 3.30806 6.42427C3.42527 6.30706 3.58424 6.24121 3.75 6.24121H6.25C6.35292 6.24128 6.45427 6.21593 6.54504 6.16741C6.63581 6.11889 6.71319 6.0487 6.77031 5.96309L7.83437 4.36621H12.1648L13.2297 5.96309C13.2868 6.0487 13.3642 6.11889 13.455 6.16741C13.5457 6.21593 13.6471 6.24128 13.75 6.24121H16.25C16.4158 6.24121 16.5747 6.30706 16.6919 6.42427C16.8092 6.54148 16.875 6.70045 16.875 6.86621V15.6162ZM10 7.49121C9.32013 7.49121 8.65552 7.69282 8.09023 8.07053C7.52493 8.44825 7.08434 8.98512 6.82416 9.61324C6.56399 10.2414 6.49591 10.9325 6.62855 11.5993C6.76119 12.2661 7.08858 12.8786 7.56932 13.3594C8.05006 13.8401 8.66257 14.1675 9.32938 14.3002C9.99619 14.4328 10.6874 14.3647 11.3155 14.1045C11.9436 13.8444 12.4805 13.4038 12.8582 12.8385C13.2359 12.2732 13.4375 11.6086 13.4375 10.9287C13.4365 10.0173 13.074 9.14361 12.4295 8.49917C11.7851 7.85474 10.9114 7.49224 10 7.49121ZM10 13.1162C9.56735 13.1162 9.14442 12.9879 8.78469 12.7476C8.42496 12.5072 8.14458 12.1655 7.97901 11.7658C7.81345 11.3661 7.77013 10.9263 7.85453 10.502C7.93894 10.0776 8.14728 9.68784 8.4532 9.38192C8.75913 9.07599 9.14891 8.86765 9.57324 8.78324C9.99757 8.69884 10.4374 8.74216 10.8371 8.90772C11.2368 9.07329 11.5785 9.35367 11.8188 9.7134C12.0592 10.0731 12.1875 10.4961 12.1875 10.9287C12.1875 11.5089 11.957 12.0653 11.5468 12.4755C11.1366 12.8857 10.5802 13.1162 10 13.1162Z" fill="#949494"/>
</svg>
