<svg width="14" height="14" viewBox="0 0 14 14" fill="none" xmlns="http://www.w3.org/2000/svg">
<g clip-path="url(#clip0_1996_6373)">
<path fill-rule="evenodd" clip-rule="evenodd" d="M9.19599 2.33325C9.52094 2.33326 9.83946 2.42375 10.1159 2.59457C10.3923 2.76539 10.6157 3.0098 10.7611 3.30042L11.5696 4.91684C11.7119 4.8585 11.8519 4.7955 11.9896 4.72784C12.128 4.65868 12.2883 4.64736 12.4351 4.69637C12.5819 4.74538 12.7033 4.8507 12.7724 4.98917C12.8416 5.12763 12.8529 5.2879 12.8039 5.43471C12.7549 5.58152 12.6495 5.70285 12.5111 5.772C12.3709 5.83442 12.2299 5.89509 12.0882 5.954L12.6487 7.07575C12.7704 7.31897 12.8337 7.58721 12.8337 7.85917V9.33325C12.834 9.57952 12.7822 9.82308 12.6817 10.0479C12.5811 10.2727 12.4341 10.4737 12.2503 10.6376V11.3749C12.2503 11.607 12.1581 11.8295 11.994 11.9936C11.8299 12.1577 11.6074 12.2499 11.3753 12.2499C11.1433 12.2499 10.9207 12.1577 10.7566 11.9936C10.5925 11.8295 10.5003 11.607 10.5003 11.3749V11.0833H3.50033V11.3749C3.50033 11.607 3.40814 11.8295 3.24404 11.9936C3.07995 12.1577 2.85739 12.2499 2.62533 12.2499C2.39326 12.2499 2.1707 12.1577 2.00661 11.9936C1.84251 11.8295 1.75033 11.607 1.75033 11.3749V10.6376C1.39216 10.3168 1.16699 9.85125 1.16699 9.33325V7.85859C1.1671 7.58702 1.23041 7.31921 1.35191 7.07634L1.90783 5.96334C1.76724 5.90384 1.62783 5.84084 1.49074 5.77259C1.35298 5.70253 1.24826 5.58115 1.19915 5.4346C1.15005 5.28806 1.1605 5.12808 1.22824 4.98917C1.26246 4.92059 1.30986 4.85942 1.36773 4.80916C1.4256 4.75891 1.4928 4.72055 1.5655 4.69628C1.6382 4.67201 1.71498 4.6623 1.79143 4.66772C1.86788 4.67313 1.94252 4.69356 2.01108 4.72784C2.14874 4.79609 2.28933 4.8585 2.43108 4.91684L3.23958 3.301C3.38485 3.01027 3.60822 2.76574 3.88465 2.59482C4.16108 2.42389 4.47965 2.33332 4.80466 2.33325H9.19599ZM4.37533 7.58325C4.14326 7.58325 3.9207 7.67544 3.75661 7.83953C3.59251 8.00363 3.50033 8.22619 3.50033 8.45825C3.50033 8.69032 3.59251 8.91288 3.75661 9.07697C3.9207 9.24107 4.14326 9.33325 4.37533 9.33325C4.60739 9.33325 4.82995 9.24107 4.99404 9.07697C5.15814 8.91288 5.25033 8.69032 5.25033 8.45825C5.25033 8.22619 5.15814 8.00363 4.99404 7.83953C4.82995 7.67544 4.60739 7.58325 4.37533 7.58325ZM9.62533 7.58325C9.39326 7.58325 9.1707 7.67544 9.00661 7.83953C8.84251 8.00363 8.75033 8.22619 8.75033 8.45825C8.75033 8.69032 8.84251 8.91288 9.00661 9.07697C9.1707 9.24107 9.39326 9.33325 9.62533 9.33325C9.85739 9.33325 10.0799 9.24107 10.244 9.07697C10.4081 8.91288 10.5003 8.69032 10.5003 8.45825C10.5003 8.22619 10.4081 8.00363 10.244 7.83953C10.0799 7.67544 9.85739 7.58325 9.62533 7.58325ZM9.19599 3.49992H4.80466C4.70865 3.4999 4.61412 3.52359 4.52945 3.56887C4.44479 3.61415 4.37261 3.67963 4.31933 3.7595L4.28316 3.8225L3.54233 5.303C4.44533 5.57367 5.66216 5.83325 7.00033 5.83325C8.24983 5.83325 9.39258 5.60692 10.2728 5.35667L10.4577 5.303L9.71749 3.8225C9.67456 3.73664 9.61111 3.66271 9.53275 3.60725C9.4544 3.55179 9.36357 3.51653 9.26832 3.50459L9.19658 3.49992H9.19599Z" fill="#5168F6"/>
</g>
<defs>
<clipPath id="clip0_1996_6373">
<rect width="14" height="14" fill="white"/>
</clipPath>
</defs>
</svg>
