<svg width="10" height="8" viewBox="0 0 10 8" fill="none" xmlns="http://www.w3.org/2000/svg">
<path fill-rule="evenodd" clip-rule="evenodd" d="M9.78029 0.21996C9.92097 0.360682 10 0.551517 10 0.750498C10 0.94948 9.92097 1.14031 9.78029 1.28104L4.15573 6.9056C4.0814 6.97995 3.99315 7.03892 3.89603 7.07916C3.7989 7.11939 3.6948 7.14011 3.58967 7.14011C3.48454 7.14011 3.38044 7.11939 3.28331 7.07916C3.18619 7.03892 3.09794 6.97995 3.02361 6.9056L0.229091 4.11158C0.157419 4.04235 0.100251 3.95955 0.0609233 3.868C0.0215951 3.77645 0.000894167 3.67798 2.83329e-05 3.57834C-0.000837501 3.4787 0.0181492 3.37989 0.0558804 3.28766C0.0936116 3.19544 0.149332 3.11166 0.21979 3.0412C0.290248 2.97074 0.374032 2.91502 0.466254 2.87729C0.558477 2.83956 0.65729 2.82057 0.756929 2.82144C0.856568 2.8223 0.955036 2.843 1.04659 2.88233C1.13814 2.92166 1.22095 2.97883 1.29017 3.0505L3.58942 5.34975L8.71871 0.21996C8.7884 0.150227 8.87115 0.094909 8.96222 0.0571674C9.0533 0.0194258 9.15092 0 9.2495 0C9.34809 0 9.44571 0.0194258 9.53678 0.0571674C9.62786 0.094909 9.7106 0.150227 9.78029 0.21996Z" fill="#EEF0FE"/>
</svg>
