<svg width="20" height="20" viewBox="0 0 20 20" fill="none" xmlns="http://www.w3.org/2000/svg">
<rect x="0.416667" y="0.416667" width="19.1667" height="19.1667" rx="9.58333" stroke="#DDDDDE" stroke-width="0.833333"/>
<path d="M9.83333 4C13.0551 4 15.6667 6.61146 15.6667 9.83306C15.6667 13.0547 13.0551 15.6661 9.83333 15.6661C6.61158 15.6661 4 13.0547 4 9.83306C4 6.61146 6.61158 4 9.83333 4ZM9.83333 5.16661C8.59566 5.16661 7.40867 5.65825 6.5335 6.53338C5.65833 7.40851 5.16667 8.59544 5.16667 9.83306C5.16667 11.0707 5.65833 12.2576 6.5335 13.1327C7.40867 14.0079 8.59566 14.4995 9.83333 14.4995C11.071 14.4995 12.258 14.0079 13.1332 13.1327C14.0083 12.2576 14.5 11.0707 14.5 9.83306C14.5 8.59544 14.0083 7.40851 13.1332 6.53338C12.258 5.65825 11.071 5.16661 9.83333 5.16661ZM9.83333 6.33322C9.97621 6.33324 10.1141 6.38569 10.2209 6.48063C10.3277 6.57557 10.3959 6.70639 10.4126 6.84828L10.4167 6.91653V9.59157L11.9958 11.1706C12.1004 11.2755 12.1611 11.4164 12.1656 11.5645C12.1702 11.7127 12.1181 11.857 12.0201 11.9681C11.9221 12.0793 11.7854 12.149 11.6379 12.163C11.4904 12.1771 11.343 12.1344 11.2258 12.0438L11.1709 11.9954L9.42092 10.2455C9.33026 10.1547 9.27203 10.0366 9.25525 9.90947L9.25 9.83306V6.91653C9.25 6.76183 9.31146 6.61346 9.42085 6.50407C9.53025 6.39468 9.67862 6.33322 9.83333 6.33322Z" fill="#ACACAD"/>
</svg>
