<svg width="24" height="25" viewBox="0 0 24 25" fill="none" xmlns="http://www.w3.org/2000/svg">
<path fill-rule="evenodd" clip-rule="evenodd" d="M11.1016 3.8947C11.1016 3.45287 11.4598 3.0947 11.9016 3.0947C12.3434 3.0947 12.7016 3.45287 12.7016 3.8947V12.0987H20.8983C21.3401 12.0987 21.6983 12.4568 21.6983 12.8987C21.6983 13.3405 21.3401 13.6987 20.8983 13.6987H12.7016L12.7016 21.8947C12.7016 22.3365 12.3434 22.6947 11.9016 22.6947C11.4598 22.6947 11.1016 22.3365 11.1016 21.8947L11.1016 13.6987L2.89832 13.6987C2.45649 13.6987 2.09832 13.3405 2.09832 12.8987C2.09832 12.4568 2.45649 12.0987 2.89832 12.0987L11.1016 12.0987L11.1016 3.8947Z" fill="#7B7B7C"/>
</svg>
