<svg width="17" height="9" viewBox="0 0 17 9" fill="none" xmlns="http://www.w3.org/2000/svg">
<path fill-rule="evenodd" clip-rule="evenodd" d="M0.787109 0.5C0.787109 0.223858 1.01097 0 1.28711 0H16.5002C16.7764 0 17.0002 0.223858 17.0002 0.5C17.0002 0.776142 16.7764 1 16.5002 1H1.28711C1.01097 1 0.787109 0.776142 0.787109 0.5ZM0.787109 4.5C0.787109 4.22386 1.01097 4 1.28711 4H16.5002C16.7764 4 17.0002 4.22386 17.0002 4.5C17.0002 4.77614 16.7764 5 16.5002 5H1.28711C1.01097 5 0.787109 4.77614 0.787109 4.5ZM1.28711 8C1.01097 8 0.787109 8.22386 0.787109 8.5C0.787109 8.77614 1.01097 9 1.28711 9H16.5002C16.7764 9 17.0002 8.77614 17.0002 8.5C17.0002 8.22386 16.7764 8 16.5002 8H1.28711Z" fill="#949494"/>
</svg>
