<svg width="21" height="20" viewBox="0 0 21 20" fill="none" xmlns="http://www.w3.org/2000/svg">
<path d="M14.298 0.751465C15.0224 0.751581 15.726 0.993709 16.2971 1.4394C16.8682 1.88509 17.274 2.50879 17.45 3.21146L17.835 4.75146H18.748C18.9293 4.75147 19.1044 4.81711 19.241 4.93623C19.3776 5.05536 19.4664 5.21991 19.491 5.39946L19.498 5.50146C19.498 5.6827 19.4324 5.85781 19.3133 5.9944C19.1942 6.13098 19.0296 6.21982 18.85 6.24446L18.748 6.25146H18.212L18.42 7.07747C18.7505 7.27817 19.0237 7.56066 19.2132 7.89766C19.4027 8.23467 19.5022 8.61482 19.502 9.00146V17.4985C19.502 17.9626 19.3177 18.4077 18.9895 18.7359C18.6613 19.0641 18.2162 19.2485 17.752 19.2485H16.248C15.7839 19.2485 15.3388 19.0641 15.0106 18.7359C14.6824 18.4077 14.498 17.9626 14.498 17.4985L14.497 16.2515H6.50205V17.4985C6.50205 17.9626 6.31767 18.4077 5.98948 18.7359C5.66129 19.0641 5.21618 19.2485 4.75205 19.2485H3.24805C2.78392 19.2485 2.3388 19.0641 2.01061 18.7359C1.68242 18.4077 1.49805 17.9626 1.49805 17.4985V9.00146C1.49805 8.18646 1.93105 7.47246 2.58005 7.07846L2.78705 6.25146H2.24805C2.06681 6.25146 1.8917 6.18582 1.75512 6.0667C1.61853 5.94757 1.5297 5.78302 1.50505 5.60347L1.49805 5.50146C1.49805 5.32023 1.56369 5.14512 1.68281 5.00853C1.80194 4.87195 1.96649 4.78311 2.14605 4.75846L2.24805 4.75146H3.16105L3.54705 3.21346C3.72279 2.51026 4.12857 1.88598 4.69987 1.43988C5.27118 0.993783 5.97521 0.75147 6.70005 0.751465H14.298ZM5.00105 16.2515H2.99705L2.99805 17.4985C2.99805 17.6365 3.11005 17.7485 3.24805 17.7485H4.75205C4.81835 17.7485 4.88194 17.7221 4.92882 17.6752C4.97571 17.6284 5.00205 17.5648 5.00205 17.4985L5.00105 16.2515ZM18.001 16.2515H15.996L15.997 17.4985C15.997 17.6365 16.109 17.7485 16.247 17.7485H17.751C17.8174 17.7485 17.8809 17.7221 17.9278 17.6752C17.9747 17.6284 18.001 17.5648 18.001 17.4985V16.2515ZM17.251 8.25146H3.74805C3.54913 8.25146 3.35837 8.33048 3.21772 8.47114C3.07706 8.61179 2.99805 8.80255 2.99805 9.00146V14.7515H18.002V9.00146C18.002 8.80255 17.923 8.61179 17.7824 8.47114C17.6417 8.33048 17.45 8.25146 17.251 8.25146ZM8.74805 11.7515H12.25C12.44 11.7518 12.6227 11.8241 12.7614 11.9539C12.9001 12.0838 12.9843 12.2613 12.9971 12.4508C13.0099 12.6403 12.9504 12.8277 12.8305 12.975C12.7105 13.1223 12.5392 13.2186 12.351 13.2445L12.25 13.2515H8.74805C8.55802 13.2514 8.37511 13.1792 8.23626 13.0495C8.0974 12.9198 8.01297 12.7422 8.00002 12.5526C7.98707 12.363 8.04656 12.1756 8.16648 12.0282C8.2864 11.8808 8.4578 11.7844 8.64605 11.7585L8.74805 11.7515ZM15.498 9.75146C15.7633 9.75146 16.0176 9.85682 16.2052 10.0444C16.3927 10.2319 16.498 10.4862 16.498 10.7515C16.498 11.0167 16.3927 11.271 16.2052 11.4586C16.0176 11.6461 15.7633 11.7515 15.498 11.7515C15.2328 11.7515 14.9785 11.6461 14.7909 11.4586C14.6034 11.271 14.498 11.0167 14.498 10.7515C14.498 10.4862 14.6034 10.2319 14.7909 10.0444C14.9785 9.85682 15.2328 9.75146 15.498 9.75146ZM5.49805 9.75146C5.76326 9.75146 6.01762 9.85682 6.20515 10.0444C6.39269 10.2319 6.49805 10.4862 6.49805 10.7515C6.49805 11.0167 6.39269 11.271 6.20515 11.4586C6.01762 11.6461 5.76326 11.7515 5.49805 11.7515C5.23283 11.7515 4.97848 11.6461 4.79094 11.4586C4.6034 11.271 4.49805 11.0167 4.49805 10.7515C4.49805 10.4862 4.6034 10.2319 4.79094 10.0444C4.97848 9.85682 5.23283 9.75146 5.49805 9.75146ZM14.298 2.25146H6.69905C6.30867 2.25143 5.92949 2.38193 5.62181 2.6222C5.31414 2.86247 5.09563 3.19872 5.00105 3.57747L4.20905 6.75146H16.791L15.995 3.57546C15.9001 3.19709 15.6814 2.86129 15.3738 2.62141C15.0661 2.38153 14.6872 2.25132 14.297 2.25146" fill="#5168F6"/>
</svg>
