<svg width="91" height="99" viewBox="0 0 91 99" fill="none" xmlns="http://www.w3.org/2000/svg">
<g clip-path="url(#clip0_5746_16145)">
<path opacity="0.2" fill-rule="evenodd" clip-rule="evenodd" d="M39.7929 34.8428C38.3879 35.1772 37.1011 35.8896 36.0719 36.9028C35.0426 37.916 34.3101 39.1914 33.9536 40.5909L29.211 59.1854C27.4226 59.5504 25.8153 60.5222 24.6611 61.9361C23.5068 63.35 22.8766 65.1194 22.877 66.9446V78.3815C22.8769 79.8956 23.3109 81.378 24.1276 82.6529C24.9444 83.9278 26.1095 84.9418 27.485 85.5747C27.0576 86.4119 26.8351 87.3386 26.8357 88.2785V92.2373C26.8357 93.8122 27.4614 95.3226 28.575 96.4362C29.6886 97.5499 31.199 98.1755 32.7739 98.1755C34.3488 98.1755 35.8592 97.5499 36.9729 96.4362C38.0865 95.3226 38.7121 93.8122 38.7121 92.2373V88.2785C38.7095 87.5818 38.5973 86.922 38.3756 86.2991H74.6777C74.454 86.935 74.3402 87.6044 74.3412 88.2785V92.2373C74.3412 93.8122 74.9668 95.3226 76.0805 96.4362C77.1941 97.5499 78.7045 98.1755 80.2794 98.1755C81.8543 98.1755 83.3647 97.5499 84.4783 96.4362C85.5919 95.3226 86.2176 93.8122 86.2176 92.2373V88.2785C86.2176 87.3047 85.9801 86.3862 85.5683 85.5747C86.9438 84.9418 88.1089 83.9278 88.9257 82.6529C89.7424 81.378 90.1764 79.8956 90.1764 78.3815V66.9446C90.1766 65.1188 89.5457 63.3491 88.3907 61.935C87.2357 60.521 85.6274 59.5496 83.8383 59.1854L79.0997 40.5909C78.7432 39.1914 78.0107 37.916 76.9815 36.9028C75.9522 35.8896 74.6655 35.1772 73.2605 34.8428C67.7795 33.5281 62.1631 32.8611 56.5267 32.8555C50.9421 32.8555 45.3668 33.5179 39.7929 34.8428Z" fill="url(#paint0_linear_5746_16145)"/>
<path fill-rule="evenodd" clip-rule="evenodd" d="M28.0123 34.6525L23.2697 53.2469C21.4806 53.6111 19.8723 54.5825 18.7173 55.9965C17.5623 57.4106 16.9315 59.1803 16.9316 61.0061V72.4431C16.9316 74.5429 17.7658 76.5568 19.2506 78.0416C20.7355 79.5265 22.7493 80.3606 24.8492 80.3606H76.3135C78.4134 80.3606 80.4272 79.5265 81.912 78.0416C83.3969 76.5568 84.2311 74.5429 84.2311 72.4431V61.0061C84.2312 59.1803 83.6004 57.4106 82.4454 55.9965C81.2904 54.5825 79.6821 53.6111 77.893 53.2469L73.1544 34.6525C72.7979 33.2529 72.0654 31.9775 71.0362 30.9643C70.0069 29.9511 68.7202 29.2387 67.3152 28.9043C61.8354 27.5899 56.2205 26.9229 50.5853 26.917C45.0008 26.917 39.4215 27.5794 33.8475 28.9043C32.4425 29.2387 31.1558 29.9511 30.1265 30.9643C29.0973 31.9775 28.3688 33.2529 28.0123 34.6525ZM24.8532 57.0473C25.2931 57.0479 25.7207 56.9018 26.0684 56.6323C26.4161 56.3627 26.6641 55.985 26.7732 55.5588L31.8484 35.6263C32.0268 34.9263 32.3933 34.2884 32.9083 33.7818C33.4233 33.2752 34.0671 32.9191 34.7699 32.7522C39.9502 31.5103 45.2583 30.8805 50.5853 30.8758C55.8505 30.8758 61.1223 31.5026 66.4007 32.7562C67.1028 32.9237 67.7458 33.2801 68.26 33.7866C68.7743 34.2932 69.1402 34.9307 69.3183 35.6303L74.3935 55.5588C74.5026 55.985 74.7506 56.3627 75.0982 56.6323C75.4459 56.9018 75.8735 57.0479 76.3135 57.0473C77.3634 57.0473 78.3703 57.4644 79.1128 58.2068C79.8552 58.9493 80.2723 59.9562 80.2723 61.0061V72.4431C80.2723 73.493 79.8552 74.4999 79.1128 75.2424C78.3703 75.9848 77.3634 76.4019 76.3135 76.4019H24.8492C23.7993 76.4019 22.7923 75.9848 22.0499 75.2424C21.3075 74.4999 20.8904 73.493 20.8904 72.4431V61.0061C20.8904 59.9562 21.3075 58.9493 22.0499 58.2068C22.7923 57.4644 23.8032 57.0473 24.8532 57.0473Z" fill="url(#paint1_linear_5746_16145)"/>
<path fill-rule="evenodd" clip-rule="evenodd" d="M32.7748 82.3405C32.7748 80.7656 32.1492 79.2552 31.0356 78.1416C29.9219 77.028 28.4115 76.4023 26.8366 76.4023C25.2617 76.4023 23.7513 77.028 22.6377 78.1416C21.5241 79.2552 20.8984 80.7656 20.8984 82.3405V86.2993C20.8984 87.8742 21.5241 89.3846 22.6377 90.4982C23.7513 91.6119 25.2617 92.2375 26.8366 92.2375C28.4115 92.2375 29.9219 91.6119 31.0356 90.4982C32.1492 89.3846 32.7748 87.8742 32.7748 86.2993V82.3405ZM24.8572 82.3405C24.8572 81.8156 25.0658 81.3121 25.437 80.9409C25.8082 80.5697 26.3117 80.3611 26.8366 80.3611C27.3616 80.3611 27.8651 80.5697 28.2363 80.9409C28.6075 81.3121 28.816 81.8156 28.816 82.3405V86.2993C28.816 86.8243 28.6075 87.3278 28.2363 87.699C27.8651 88.0702 27.3616 88.2787 26.8366 88.2787C26.3117 88.2787 25.8082 88.0702 25.437 87.699C25.0658 87.3278 24.8572 86.8243 24.8572 86.2993V82.3405ZM80.2803 82.3405C80.2803 80.7656 79.6546 79.2552 78.541 78.1416C77.4274 77.028 75.917 76.4023 74.3421 76.4023C72.7672 76.4023 71.2568 77.028 70.1432 78.1416C69.0295 79.2552 68.4039 80.7656 68.4039 82.3405V86.2993C68.4039 87.8742 69.0295 89.3846 70.1432 90.4982C71.2568 91.6119 72.7672 92.2375 74.3421 92.2375C75.917 92.2375 77.4274 91.6119 78.541 90.4982C79.6546 89.3846 80.2803 87.8742 80.2803 86.2993V82.3405ZM72.3627 82.3405C72.3627 81.8156 72.5712 81.3121 72.9424 80.9409C73.3137 80.5697 73.8171 80.3611 74.3421 80.3611C74.8671 80.3611 75.3705 80.5697 75.7417 80.9409C76.1129 81.3121 76.3215 81.8156 76.3215 82.3405V86.2993C76.3215 86.8243 76.1129 87.3278 75.7417 87.699C75.3705 88.0702 74.8671 88.2787 74.3421 88.2787C73.8171 88.2787 73.3137 88.0702 72.9424 87.699C72.5712 87.3278 72.3627 86.8243 72.3627 86.2993V82.3405ZM70.3833 72.4436C71.9582 72.4436 73.4686 71.8179 74.5822 70.7043C75.6959 69.5907 76.3215 68.0803 76.3215 66.5054C76.3215 64.9305 75.6959 63.4201 74.5822 62.3064C73.4686 61.1928 71.9582 60.5672 70.3833 60.5672C68.8084 60.5672 67.298 61.1928 66.1844 62.3064C65.0707 63.4201 64.4451 64.9305 64.4451 66.5054C64.4451 68.0803 65.0707 69.5907 66.1844 70.7043C67.298 71.8179 68.8084 72.4436 70.3833 72.4436ZM70.3833 64.526C70.9083 64.526 71.4117 64.7345 71.7829 65.1057C72.1542 65.4769 72.3627 65.9804 72.3627 66.5054C72.3627 67.0303 72.1542 67.5338 71.7829 67.905C71.4117 68.2762 70.9083 68.4848 70.3833 68.4848C69.8583 68.4848 69.3549 68.2762 68.9837 67.905C68.6124 67.5338 68.4039 67.0303 68.4039 66.5054C68.4039 65.9804 68.6124 65.4769 68.9837 65.1057C69.3549 64.7345 69.8583 64.526 70.3833 64.526ZM30.7954 72.4436C32.3703 72.4436 33.8807 71.8179 34.9943 70.7043C36.108 69.5907 36.7336 68.0803 36.7336 66.5054C36.7336 64.9305 36.108 63.4201 34.9943 62.3064C33.8807 61.1928 32.3703 60.5672 30.7954 60.5672C29.2205 60.5672 27.7101 61.1928 26.5965 62.3064C25.4829 63.4201 24.8572 64.9305 24.8572 66.5054C24.8572 68.0803 25.4829 69.5907 26.5965 70.7043C27.7101 71.8179 29.2205 72.4436 30.7954 72.4436ZM30.7954 64.526C31.3204 64.526 31.8238 64.7345 32.1951 65.1057C32.5663 65.4769 32.7748 65.9804 32.7748 66.5054C32.7748 67.0303 32.5663 67.5338 32.1951 67.905C31.8238 68.2762 31.3204 68.4848 30.7954 68.4848C30.2704 68.4848 29.767 68.2762 29.3958 67.905C29.0246 67.5338 28.816 67.0303 28.816 66.5054C28.816 65.9804 29.0246 65.4769 29.3958 65.1057C29.767 64.7345 30.2704 64.526 30.7954 64.526ZM61.0722 36.8145H40.1065C38.7774 36.8144 37.4866 37.2602 36.4409 38.0806C35.3951 38.9009 34.6549 40.0484 34.3385 41.3394L32.3987 49.2569C32.1845 50.1312 32.1718 51.0427 32.3616 51.9225C32.5515 52.8024 32.9388 53.6276 33.4944 54.3357C34.0501 55.0439 34.7594 55.6165 35.5688 56.0102C36.3782 56.4039 37.2666 56.6085 38.1667 56.6084H63.012C63.9121 56.6085 64.8005 56.4039 65.6099 56.0102C66.4193 55.6165 67.1287 55.0439 67.6843 54.3357C68.2399 53.6276 68.6272 52.8024 68.8171 51.9225C69.0069 51.0427 68.9942 50.1312 68.78 49.2569L66.8402 41.3394C66.5237 40.0478 65.7828 38.8998 64.7363 38.0793C63.6897 37.2589 62.402 36.8135 61.0722 36.8145ZM38.1825 42.2815C38.288 41.851 38.535 41.4684 38.8838 41.1949C39.2327 40.9214 39.6632 40.7729 40.1065 40.7732H61.0722C61.5148 40.7738 61.9445 40.9227 62.2925 41.1961C62.6405 41.4695 62.8869 41.8517 62.9922 42.2815L64.932 50.1991C65.0034 50.4903 65.0077 50.7939 64.9445 51.087C64.8814 51.3801 64.7525 51.655 64.5676 51.891C64.3827 52.127 64.1466 52.3179 63.8771 52.4493C63.6077 52.5808 63.3118 52.6492 63.012 52.6496H38.1667C37.8665 52.6498 37.5703 52.5818 37.3003 52.4506C37.0303 52.3195 36.7937 52.1286 36.6084 51.8926C36.423 51.6565 36.2938 51.3814 36.2304 51.088C36.1671 50.7946 36.1713 50.4906 36.2427 50.1991L38.1825 42.2815Z" fill="url(#paint2_linear_5746_16145)"/>
</g>
<path d="M18.2915 0H3.44431C2.74942 0 2.08299 0.276044 1.59162 0.767406C1.10026 1.25877 0.824219 1.9252 0.824219 2.62009V13.1004C0.824219 13.7953 1.10026 14.4618 1.59162 14.9531C2.08299 15.4445 2.74942 15.7205 3.44431 15.7205H15.2784L19.453 18.9607C19.5771 19.0525 19.7233 19.1097 19.8768 19.1266C20.0302 19.1434 20.1853 19.1194 20.3264 19.0568C20.475 18.986 20.6006 18.8746 20.6887 18.7356C20.7768 18.5965 20.8238 18.4354 20.8242 18.2707V2.62009C20.8246 1.94007 20.5606 1.28654 20.0879 0.797613C19.6153 0.308686 18.9711 0.0226672 18.2915 0Z" fill="url(#paint3_linear_5746_16145)"/>
<path d="M13.6243 8.61344C13.6243 8.37382 13.7195 8.14402 13.8889 7.97458C14.0584 7.80515 14.2882 7.70996 14.5278 7.70996C14.7674 7.70996 14.9972 7.80515 15.1666 7.97458C15.3361 8.14402 15.4313 8.37382 15.4313 8.61344C15.4313 8.85306 15.3361 9.08286 15.1666 9.25229C14.9972 9.42173 14.7674 9.51692 14.5278 9.51692C14.2882 9.51692 14.0584 9.42173 13.8889 9.25229C13.7195 9.08286 13.6243 8.85306 13.6243 8.61344ZM10.0104 8.61344C10.0104 8.37382 10.1056 8.14402 10.275 7.97458C10.4445 7.80515 10.6743 7.70996 10.9139 7.70996C11.1535 7.70996 11.3833 7.80515 11.5527 7.97458C11.7222 8.14402 11.8174 8.37382 11.8174 8.61344C11.8174 8.85306 11.7222 9.08286 11.5527 9.25229C11.3833 9.42173 11.1535 9.51692 10.9139 9.51692C10.6743 9.51692 10.4445 9.42173 10.275 9.25229C10.1056 9.08286 10.0104 8.85306 10.0104 8.61344ZM6.39648 8.61344C6.39648 8.37382 6.49167 8.14402 6.66111 7.97458C6.83054 7.80515 7.06035 7.70996 7.29996 7.70996C7.53958 7.70996 7.76938 7.80515 7.93882 7.97458C8.10825 8.14402 8.20344 8.37382 8.20344 8.61344C8.20344 8.85306 8.10825 9.08286 7.93882 9.25229C7.76938 9.42173 7.53958 9.51692 7.29996 9.51692C7.06035 9.51692 6.83054 9.42173 6.66111 9.25229C6.49167 9.08286 6.39648 8.85306 6.39648 8.61344Z" fill="#EEF0FE"/>
<defs>
<linearGradient id="paint0_linear_5746_16145" x1="16.4189" y1="32.8555" x2="99.7894" y2="61.8995" gradientUnits="userSpaceOnUse">
<stop stop-color="#3CD1D1"/>
<stop offset="1" stop-color="#5168F6"/>
</linearGradient>
<linearGradient id="paint1_linear_5746_16145" x1="10.4736" y1="26.917" x2="89.6143" y2="60.6143" gradientUnits="userSpaceOnUse">
<stop stop-color="#3CD1D1"/>
<stop offset="1" stop-color="#5168F6"/>
</linearGradient>
<linearGradient id="paint2_linear_5746_16145" x1="15.2002" y1="36.8145" x2="88.1198" y2="63.2317" gradientUnits="userSpaceOnUse">
<stop stop-color="#3CD1D1"/>
<stop offset="1" stop-color="#5168F6"/>
</linearGradient>
<linearGradient id="paint3_linear_5746_16145" x1="0.824219" y1="9.5659" x2="20.8242" y2="9.5659" gradientUnits="userSpaceOnUse">
<stop stop-color="#509DF7"/>
<stop offset="1" stop-color="#5168F6"/>
</linearGradient>
<clipPath id="clip0_5746_16145">
<rect width="79.1758" height="79.1758" fill="white" transform="translate(11 19)"/>
</clipPath>
</defs>
</svg>
