<svg width="20" height="21" viewBox="0 0 20 21" fill="none" xmlns="http://www.w3.org/2000/svg">
<path d="M19.3211 10.1128C19.2937 10.0511 18.632 8.58315 17.1609 7.11206C15.2008 5.1519 12.725 4.11597 9.99999 4.11597C7.27499 4.11597 4.79921 5.1519 2.83905 7.11206C1.36796 8.58315 0.703118 10.0535 0.678899 10.1128C0.643362 10.1928 0.625 10.2793 0.625 10.3667C0.625 10.4542 0.643362 10.5407 0.678899 10.6207C0.706243 10.6824 1.36796 12.1496 2.83905 13.6207C4.79921 15.58 7.27499 16.616 9.99999 16.616C12.725 16.616 15.2008 15.58 17.1609 13.6207C18.632 12.1496 19.2937 10.6824 19.3211 10.6207C19.3566 10.5407 19.375 10.4542 19.375 10.3667C19.375 10.2793 19.3566 10.1928 19.3211 10.1128ZM9.99999 15.366C7.5953 15.366 5.49452 14.4917 3.75546 12.7683C3.04193 12.0587 2.43485 11.2495 1.95312 10.366C2.43467 9.48231 3.04176 8.67311 3.75546 7.96362C5.49452 6.24019 7.5953 5.36597 9.99999 5.36597C12.4047 5.36597 14.5055 6.24019 16.2445 7.96362C16.9594 8.673 17.5678 9.48218 18.0508 10.366C17.4875 11.4175 15.0336 15.366 9.99999 15.366ZM9.99999 6.61597C9.25831 6.61597 8.53329 6.8359 7.9166 7.24796C7.29992 7.66001 6.81927 8.24568 6.53544 8.9309C6.25162 9.61613 6.17735 10.3701 6.32205 11.0976C6.46674 11.825 6.82389 12.4932 7.34834 13.0176C7.87279 13.5421 8.54097 13.8992 9.2684 14.0439C9.99583 14.1886 10.7498 14.1143 11.4351 13.8305C12.1203 13.5467 12.7059 13.066 13.118 12.4494C13.5301 11.8327 13.75 11.1076 13.75 10.366C13.749 9.37172 13.3535 8.4185 12.6505 7.71546C11.9475 7.01242 10.9942 6.617 9.99999 6.61597ZM9.99999 12.866C9.50554 12.866 9.02219 12.7193 8.61107 12.4446C8.19994 12.1699 7.87951 11.7795 7.69029 11.3227C7.50107 10.8659 7.45157 10.3632 7.54803 9.87824C7.64449 9.39329 7.88259 8.94783 8.23222 8.5982C8.58186 8.24857 9.02731 8.01047 9.51227 7.914C9.99722 7.81754 10.4999 7.86705 10.9567 8.05627C11.4135 8.24549 11.804 8.56592 12.0787 8.97704C12.3534 9.38816 12.5 9.87151 12.5 10.366C12.5 11.029 12.2366 11.6649 11.7678 12.1337C11.2989 12.6026 10.663 12.866 9.99999 12.866Z" fill="currentColor"/>
</svg>
