<svg width="24" height="24" viewBox="0 0 24 24" fill="none" xmlns="http://www.w3.org/2000/svg">
<path d="M18.1663 11.9996H9.92968M9.92968 11.9996C9.92968 12.385 9.77589 12.7547 9.50334 13.0273C9.23078 13.2998 8.86112 13.4529 8.47567 13.4529C8.09023 13.4529 7.72057 13.2998 7.44801 13.0273C7.17546 12.7547 7.02234 12.385 7.02234 11.9996M9.92968 11.9996C9.92968 11.6142 9.77589 11.2445 9.50334 10.9719C9.23078 10.6994 8.86112 10.5463 8.47567 10.5463C8.09023 10.5463 7.72057 10.6994 7.44801 10.9719C7.17546 11.2445 7.02234 11.6142 7.02234 11.9996M7.02234 11.9996H5.83301M18.1663 16.4043H14.3343M14.3343 16.4043C14.3343 16.7898 14.1809 17.1599 13.9082 17.4325C13.6356 17.7051 13.2659 17.8583 12.8803 17.8583C12.4949 17.8583 12.1252 17.7045 11.8527 17.4319C11.5801 17.1594 11.427 16.7897 11.427 16.4043M14.3343 16.4043C14.3343 16.0187 14.1809 15.6493 13.9082 15.3767C13.6356 15.1041 13.2659 14.9509 12.8803 14.9509C12.4949 14.9509 12.1252 15.1041 11.8527 15.3766C11.5801 15.6492 11.427 16.0188 11.427 16.4043M11.427 16.4043H5.83301M18.1663 7.59493H16.0963M16.0963 7.59493C16.0963 7.78579 16.0581 7.97478 15.985 8.1511C15.912 8.32743 15.805 8.48764 15.67 8.6226C15.535 8.75755 15.3748 8.8646 15.1985 8.93764C15.0222 9.01068 14.8332 9.04827 14.6423 9.04827C14.2569 9.04827 13.8872 8.89515 13.6147 8.6226C13.3421 8.35004 13.189 7.98038 13.189 7.59493M16.0963 7.59493C16.0963 7.40408 16.0581 7.21509 15.985 7.03877C15.912 6.86244 15.805 6.70223 15.67 6.56727C15.535 6.43232 15.3748 6.32527 15.1985 6.25223C15.0222 6.17919 14.8332 6.1416 14.6423 6.1416C14.2569 6.1416 13.8872 6.29472 13.6147 6.56727C13.3421 6.83983 13.189 7.20949 13.189 7.59493M13.189 7.59493H5.83301" stroke="#191919" stroke-miterlimit="10" stroke-linecap="round"/>
</svg>
