<svg width="24" height="24" viewBox="0 0 24 24" fill="none" xmlns="http://www.w3.org/2000/svg">
<path d="M10.6992 18.8252C10.6992 18.3942 10.8704 17.9809 11.1752 17.6761C11.4799 17.3714 11.8932 17.2002 12.3242 17.2002C12.7552 17.2002 13.1685 17.3714 13.4733 17.6761C13.778 17.9809 13.9492 18.3942 13.9492 18.8252C13.9492 19.2562 13.778 19.6695 13.4733 19.9742C13.1685 20.279 12.7552 20.4502 12.3242 20.4502C11.8932 20.4502 11.4799 20.279 11.1752 19.9742C10.8704 19.6695 10.6992 19.2562 10.6992 18.8252ZM10.6992 12.3252C10.6992 11.8942 10.8704 11.4809 11.1752 11.1761C11.4799 10.8714 11.8932 10.7002 12.3242 10.7002C12.7552 10.7002 13.1685 10.8714 13.4733 11.1761C13.778 11.4809 13.9492 11.8942 13.9492 12.3252C13.9492 12.7562 13.778 13.1695 13.4733 13.4742C13.1685 13.779 12.7552 13.9502 12.3242 13.9502C11.8932 13.9502 11.4799 13.779 11.1752 13.4742C10.8704 13.1695 10.6992 12.7562 10.6992 12.3252ZM10.6992 5.8252C10.6992 5.39422 10.8704 4.98089 11.1752 4.67615C11.4799 4.3714 11.8932 4.2002 12.3242 4.2002C12.7552 4.2002 13.1685 4.3714 13.4733 4.67615C13.778 4.98089 13.9492 5.39422 13.9492 5.8252C13.9492 6.25617 13.778 6.6695 13.4733 6.97424C13.1685 7.27899 12.7552 7.4502 12.3242 7.4502C11.8932 7.4502 11.4799 7.27899 11.1752 6.97424C10.8704 6.6695 10.6992 6.25617 10.6992 5.8252Z" fill="currentColor"/>
</svg>
