<svg width="65" height="64" viewBox="0 0 65 64" fill="none" xmlns="http://www.w3.org/2000/svg">
<path fill-rule="evenodd" clip-rule="evenodd" d="M16.5 21.3328C16.5 17.0893 18.1857 13.0196 21.1863 10.0191C24.1869 7.01847 28.2565 5.33276 32.5 5.33276C36.7435 5.33276 40.8131 7.01847 43.8137 10.0191C46.8143 13.0196 48.5 17.0893 48.5 21.3328H51.1667C52.5812 21.3328 53.9377 21.8947 54.9379 22.8949C55.9381 23.8951 56.5 25.2516 56.5 26.6661V53.3328C56.5 54.7472 55.9381 56.1038 54.9379 57.104C53.9377 58.1042 52.5812 58.6661 51.1667 58.6661H13.8333C12.4188 58.6661 11.0623 58.1042 10.0621 57.104C9.0619 56.1038 8.5 54.7472 8.5 53.3328V26.6661C8.5 25.2516 9.0619 23.8951 10.0621 22.8949C11.0623 21.8947 12.4188 21.3328 13.8333 21.3328H16.5ZM32.5 10.6661C35.329 10.6661 38.0421 11.7899 40.0425 13.7903C42.0429 15.7907 43.1667 18.5038 43.1667 21.3328H21.8333C21.8333 18.5038 22.9571 15.7907 24.9575 13.7903C26.9579 11.7899 29.671 10.6661 32.5 10.6661ZM37.8333 37.3328C37.8333 38.2689 37.5869 39.1886 37.1188 39.9994C36.6507 40.8101 35.9774 41.4833 35.1667 41.9514V45.3328C35.1667 46.04 34.8857 46.7183 34.3856 47.2184C33.8855 47.7185 33.2072 47.9994 32.5 47.9994C31.7928 47.9994 31.1145 47.7185 30.6144 47.2184C30.1143 46.7183 29.8333 46.04 29.8333 45.3328V41.9514C28.8166 41.3644 28.0221 40.4583 27.5728 39.3736C27.1236 38.289 27.0448 37.0864 27.3486 35.9524C27.6525 34.8184 28.322 33.8163 29.2534 33.1016C30.1848 32.3869 31.326 31.9995 32.5 31.9994C33.9145 31.9994 35.271 32.5613 36.2712 33.5615C37.2714 34.5617 37.8333 35.9183 37.8333 37.3328Z" fill="#C5C5C6"/>
</svg>
