<svg width="212" height="17" viewBox="0 0 212 17" fill="none" xmlns="http://www.w3.org/2000/svg">
<path d="M11.6797 0.265625V3.84375H13.6484V5.29688H11.6797V8.78125H9.94531V0.265625H11.6797ZM11.6797 9.45312V14.2188H2.55469V9.45312H11.6797ZM4.27344 10.8281V12.8125H9.96094V10.8281H4.27344ZM8.92969 1.625V3.01562H0.554688V1.625H3.88281V0.171875H5.61719V1.625H8.92969ZM4.74219 3.53125C6.78906 3.53125 8.17969 4.5625 8.19531 6.0625C8.17969 7.57812 6.78906 8.59375 4.74219 8.59375C2.67969 8.59375 1.27344 7.57812 1.27344 6.0625C1.27344 4.5625 2.67969 3.53125 4.74219 3.53125ZM4.74219 4.84375C3.66406 4.84375 2.96094 5.29688 2.96094 6.0625C2.96094 6.84375 3.66406 7.29688 4.74219 7.29688C5.82031 7.29688 6.53906 6.84375 6.53906 6.0625C6.53906 5.29688 5.82031 4.84375 4.74219 4.84375ZM17.8516 1.92188C17.8359 5.25 17.4609 8.46875 15.5859 11.25L14.2266 10.5156C15.7891 8.32031 16.2422 6.03125 16.3516 3.32812H14.6328V1.92188H17.8516ZM21.0078 1.92188C21 3.13281 20.9766 4.39062 20.8516 5.64062H22.2734V0.609375H23.9141V13.7188H22.2734V7.04688H20.6641C20.3516 8.79688 19.7812 10.5 18.7422 12.0312L17.4141 11.2812C19.1094 8.85156 19.4375 6.13281 19.5078 3.32812H18.2734V1.92188H21.0078ZM26.6484 0.265625V14.3906H24.9766V0.265625H26.6484ZM39.2578 0.265625V5.89062H41.4297V7.32812H39.2578V14.3906H37.5391V0.265625H39.2578ZM36.4453 2.4375V3.82812H28.1172V2.4375H31.4609V0.46875H33.1953V2.4375H36.4453ZM32.3359 4.75C34.3672 4.75 35.8828 6.125 35.8828 8.07812C35.8828 10.0312 34.3672 11.3906 32.3359 11.3906C30.2734 11.3906 28.7578 10.0312 28.7734 8.07812C28.7578 6.125 30.2734 4.75 32.3359 4.75ZM32.3359 6.17188C31.2266 6.17188 30.4297 6.92188 30.4297 8.07812C30.4297 9.23438 31.2266 9.96875 32.3359 9.95312C33.4141 9.96875 34.2109 9.23438 34.2266 8.07812C34.2109 6.92188 33.4141 6.17188 32.3359 6.17188ZM53.4609 4.26562V5.64062H43.6797V0.78125H45.3984V4.26562H53.4609ZM54.9141 7.28125V8.65625H42.0078V7.28125H54.9141ZM53.5547 12.6562V14.0625H43.5547V9.90625H45.2891V12.6562H53.5547ZM71.1172 6.89062V8.28125H61.2109V1.5H71.0078V2.90625H62.9297V6.89062H71.1172ZM72.5547 11.1562V12.5938H59.6484V11.1562H72.5547ZM84.5391 0.265625V5.6875H86.7109V7.14062H84.5391V14.4062H82.8203V0.265625H84.5391ZM80.5391 1.5V6.82812H75.7891V9.64062C78.0234 9.625 79.7656 9.53125 81.7422 9.1875L81.8984 10.5938C79.7266 10.9844 77.7891 11.0781 75.2266 11.0781H74.0703V5.4375H78.8047V2.90625H74.0391V1.5H80.5391ZM99.0547 0.265625V14.4062H97.3047V0.265625H99.0547ZM91.4453 1.29688C93.5703 1.29688 95.1172 3.23438 95.1328 6.28125C95.1172 9.35938 93.5703 11.2812 91.4453 11.2812C89.3047 11.2812 87.7578 9.35938 87.7578 6.28125C87.7578 3.23438 89.3047 1.29688 91.4453 1.29688ZM91.4453 2.85938C90.2422 2.85938 89.4297 4.125 89.4297 6.28125C89.4297 8.45312 90.2422 9.71875 91.4453 9.71875C92.6328 9.71875 93.4453 8.45312 93.4453 6.28125C93.4453 4.125 92.6328 2.85938 91.4453 2.85938ZM114.039 11.1875V12.625H101.133V11.1875H114.039ZM104.289 1.21875V3.64062H110.836V1.21875H112.57V8.67188H102.555V1.21875H104.289ZM104.289 7.3125H110.836V5H104.289V7.3125ZM117.711 11.8906L116.398 16.2656H114.914L115.727 11.8906H117.711ZM129.977 1.54688V2.96875H125.273V9.54688C127.477 9.53125 129.031 9.4375 130.789 9.10938L130.977 10.5156C128.992 10.9062 127.289 10.9844 124.648 10.9844H123.523V1.54688H129.977ZM134.695 0.265625V14.4062H132.961V6.65625H129.227V5.23438H132.961V0.265625H134.695ZM153.336 7.65625V9.01562H140.43V7.65625H153.336ZM151.711 10.0938V14.3906H149.961V11.4844H141.883V10.0938H151.711ZM151.898 5.28125V6.60938H142.086V0.609375H151.789V1.96875H143.82V2.9375H151.445V4.23438H143.82V5.28125H151.898ZM166.117 0.265625V7.5625H164.383V6.03125H161.539V7.10938H154.93V0.890625H156.664V2.67188H159.82V0.890625H161.539V2.14062H164.383V0.265625H166.117ZM166.117 8.14062V11.7656H158.555V12.8438H166.57V14.2188H156.82V10.4844H164.383V9.5H156.805V8.14062H166.117ZM156.664 5.73438H159.82V4H156.664V5.73438ZM161.539 4.70312H164.383V3.45312H161.539V4.70312ZM179.258 0.28125V4.71875H181.227V6.15625H179.258V10.8281H177.523V0.28125H179.258ZM176.508 1.84375V3.23438H168.133V1.84375H171.461V0.265625H173.195V1.84375H176.508ZM172.32 3.8125C174.352 3.8125 175.758 4.89062 175.773 6.51562C175.758 8.125 174.352 9.1875 172.32 9.1875C170.273 9.1875 168.852 8.125 168.852 6.51562C168.852 4.89062 170.273 3.8125 172.32 3.8125ZM172.32 5.15625C171.242 5.15625 170.539 5.65625 170.539 6.51562C170.539 7.35938 171.242 7.85938 172.32 7.84375C173.398 7.85938 174.117 7.35938 174.117 6.51562C174.117 5.65625 173.398 5.15625 172.32 5.15625ZM179.82 12.7031V14.1094H170.211V10H171.945V12.7031H179.82ZM189.602 1.29688C190.883 1.29688 191.938 2.00781 192.57 3.25H195.867V0.265625H197.586V14.4062H195.867V9.0625H192.695C192.086 10.4688 190.969 11.2812 189.602 11.2812C187.477 11.2812 185.977 9.35938 185.977 6.28125C185.977 3.23438 187.477 1.29688 189.602 1.29688ZM189.602 2.85938C188.43 2.85938 187.633 4.125 187.648 6.28125C187.633 8.45312 188.43 9.71875 189.602 9.71875C190.773 9.71875 191.555 8.45312 191.57 6.28125C191.555 4.125 190.773 2.85938 189.602 2.85938ZM193.055 4.67188C193.156 5.16406 193.211 5.70312 193.211 6.28125C193.211 6.77344 193.172 7.22656 193.102 7.65625H195.867V4.67188H193.055ZM211.648 0.265625V9.14062H209.992V5.29688H208.617V8.67188H206.992V0.546875H208.617V3.89062H209.992V0.265625H211.648ZM206.523 1.79688V3.15625H199.492V1.79688H202.164V0.390625H203.883V1.79688H206.523ZM203.023 3.73438C204.82 3.73438 206.086 4.70312 206.102 6.17188C206.086 7.64062 204.82 8.60938 203.023 8.60938C201.258 8.60938 199.977 7.64062 199.992 6.17188C199.977 4.70312 201.258 3.73438 203.023 3.73438ZM203.023 4.98438C202.148 4.98438 201.539 5.4375 201.539 6.17188C201.539 6.90625 202.133 7.35938 203.023 7.35938C203.914 7.35938 204.523 6.90625 204.523 6.17188C204.523 5.4375 203.914 4.98438 203.023 4.98438ZM206.883 9.3125C209.898 9.3125 211.711 10.2344 211.727 11.8594C211.711 13.4531 209.898 14.375 206.883 14.375C203.867 14.375 202.039 13.4531 202.039 11.8594C202.039 10.2344 203.867 9.3125 206.883 9.3125ZM206.883 10.6406C204.867 10.625 203.773 11.0312 203.773 11.8594C203.773 12.6406 204.867 13.0469 206.883 13.0469C208.883 13.0469 209.977 12.6406 209.977 11.8594C209.977 11.0312 208.883 10.625 206.883 10.6406Z" fill="url(#paint0_linear_2359_9073)"/>
<defs>
<linearGradient id="paint0_linear_2359_9073" x1="0" y1="7.5" x2="213" y2="7.5" gradientUnits="userSpaceOnUse">
<stop stop-color="#509DF7"/>
<stop offset="1" stop-color="#5168F6"/>
</linearGradient>
</defs>
</svg>
