<svg width="85" height="85" viewBox="0 0 85 85" fill="none" xmlns="http://www.w3.org/2000/svg">
<path fill-rule="evenodd" clip-rule="evenodd" d="M59.195 73.7493L50.4329 27.0347L11 30.6188V62.4159C11 66.3826 11 68.3659 11.7721 69.8818C12.4512 71.2145 13.5347 72.2981 14.8675 72.9772C16.3833 73.7493 18.3667 73.7493 22.3333 73.7493H59.195ZM44.6458 52.6055C44.6458 60.2484 37.0667 65.6176 33.7623 67.5974C33.3055 67.8715 32.7827 68.0162 32.25 68.0162C31.7173 68.0162 31.1945 67.8715 30.7377 67.5974C27.4333 65.6176 19.8542 60.2484 19.8542 52.602C19.8542 45.1043 25.8608 40.1034 32.25 40.1034C38.8623 40.1034 44.6458 45.1043 44.6458 52.6055Z" fill="url(#paint0_linear_5375_5623)"/>
<path d="M11.7721 13.8675C11 15.3833 11 17.3667 11 21.3333V23.5079L74.7146 17.7137C74.6473 15.9854 74.4667 14.8308 73.9779 13.8675C73.2988 12.5347 72.2153 11.4512 70.8825 10.7721C69.3667 10 67.3833 10 63.4167 10H22.3333C18.3667 10 16.3833 10 14.8675 10.7721C13.5347 11.4512 12.4512 12.5347 11.7721 13.8675ZM74.75 24.8254L57.5198 26.3908L66.3952 73.7323C68.4919 73.6863 69.8058 73.5269 70.8825 72.9779C72.2153 72.2988 73.2988 71.2153 73.9779 69.8825C74.75 68.3667 74.75 66.3833 74.75 62.4167V24.8254Z" fill="url(#paint1_linear_5375_5623)"/>
<path d="M32.2428 56.0416C34.1988 56.0416 35.7845 54.4559 35.7845 52.4999C35.7845 50.5439 34.1988 48.9583 32.2428 48.9583C30.2868 48.9583 28.7012 50.5439 28.7012 52.4999C28.7012 54.4559 30.2868 56.0416 32.2428 56.0416Z" fill="url(#paint2_linear_5375_5623)"/>
<defs>
<linearGradient id="paint0_linear_5375_5623" x1="11" y1="50.392" x2="59.195" y2="50.392" gradientUnits="userSpaceOnUse">
<stop stop-color="#509DF7"/>
<stop offset="1" stop-color="#5168F6"/>
</linearGradient>
<linearGradient id="paint1_linear_5375_5623" x1="4.88258" y1="10" x2="84.3501" y2="36.8776" gradientUnits="userSpaceOnUse">
<stop stop-color="#3CD1D1"/>
<stop offset="1" stop-color="#5168F6"/>
</linearGradient>
<linearGradient id="paint2_linear_5375_5623" x1="28.7012" y1="52.4999" x2="35.7845" y2="52.4999" gradientUnits="userSpaceOnUse">
<stop stop-color="#509DF7"/>
<stop offset="1" stop-color="#5168F6"/>
</linearGradient>
</defs>
</svg>
