<svg width="6" height="6" viewBox="0 0 6 6" fill="none" xmlns="http://www.w3.org/2000/svg">
<g clip-path="url(#clip0_1312_6543)">
<path d="M3 3.25C3.41421 3.25 3.75 2.91421 3.75 2.5C3.75 2.08579 3.41421 1.75 3 1.75C2.58579 1.75 2.25 2.08579 2.25 2.5C2.25 2.91421 2.58579 3.25 3 3.25Z" fill="#5168F6"/>
<path d="M3 5.5C4 4.5 5 3.60457 5 2.5C5 1.39543 4.10457 0.5 3 0.5C1.89543 0.5 1 1.39543 1 2.5C1 3.60457 2 4.5 3 5.5Z" fill="#5168F6"/>
<path d="M3 3.25C3.41421 3.25 3.75 2.91421 3.75 2.5C3.75 2.08579 3.41421 1.75 3 1.75C2.58579 1.75 2.25 2.08579 2.25 2.5C2.25 2.91421 2.58579 3.25 3 3.25Z" stroke="#5168F6" stroke-width="0.8" stroke-linecap="round" stroke-linejoin="round"/>
<path d="M3 5.5C4 4.5 5 3.60457 5 2.5C5 1.39543 4.10457 0.5 3 0.5C1.89543 0.5 1 1.39543 1 2.5C1 3.60457 2 4.5 3 5.5Z" stroke="#5168F6" stroke-width="0.8" stroke-linecap="round" stroke-linejoin="round"/>
<path d="M3.89961 2.4C3.89961 2.89706 3.49667 3.3 2.99961 3.3C2.50255 3.3 2.09961 2.89706 2.09961 2.4C2.09961 1.90294 2.50255 1.5 2.99961 1.5C3.49667 1.5 3.89961 1.90294 3.89961 2.4Z" fill="white"/>
</g>
<defs>
<clipPath id="clip0_1312_6543">
<rect width="6" height="6" fill="white"/>
</clipPath>
</defs>
</svg>
