<svg width="108" height="106" viewBox="0 0 108 106" fill="none" xmlns="http://www.w3.org/2000/svg">
<g opacity="0.2">
<path d="M56.9316 50.7451C56.9316 54.3255 55.5093 57.7593 52.9776 60.2911C50.4458 62.8228 47.0121 64.2451 43.4316 64.2451C39.8512 64.2451 36.4174 62.8228 33.8857 60.2911C31.354 57.7593 29.9316 54.3255 29.9316 50.7451C29.9316 47.1647 31.354 43.7309 33.8857 41.1992C36.4174 38.6674 39.8512 37.2451 43.4316 37.2451C47.0121 37.2451 50.4458 38.6674 52.9776 41.1992C55.5093 43.7309 56.9316 47.1647 56.9316 50.7451Z" fill="url(#paint0_linear_5768_6861)"/>
<path fill-rule="evenodd" clip-rule="evenodd" d="M43.4316 55.2451C44.6251 55.2451 45.7697 54.771 46.6136 53.9271C47.4575 53.0832 47.9316 51.9386 47.9316 50.7451C47.9316 49.5516 47.4575 48.4071 46.6136 47.5631C45.7697 46.7192 44.6251 46.2451 43.4316 46.2451C42.2382 46.2451 41.0936 46.7192 40.2497 47.5631C39.4057 48.4071 38.9316 49.5516 38.9316 50.7451C38.9316 51.9386 39.4057 53.0832 40.2497 53.9271C41.0936 54.771 42.2382 55.2451 43.4316 55.2451ZM43.4316 64.2451C45.2045 64.2451 46.96 63.8959 48.5979 63.2175C50.2358 62.5391 51.724 61.5447 52.9776 60.2911C54.2312 59.0375 55.2256 57.5492 55.904 55.9113C56.5825 54.2734 56.9316 52.518 56.9316 50.7451C56.9316 48.9723 56.5825 47.2168 55.904 45.5789C55.2256 43.941 54.2312 42.4528 52.9776 41.1992C51.724 39.9456 50.2358 38.9512 48.5979 38.2727C46.96 37.5943 45.2045 37.2451 43.4316 37.2451C39.8512 37.2451 36.4174 38.6674 33.8857 41.1992C31.354 43.7309 29.9316 47.1647 29.9316 50.7451C29.9316 54.3255 31.354 57.7593 33.8857 60.2911C36.4174 62.8228 39.8512 64.2451 43.4316 64.2451Z" fill="url(#paint1_linear_5768_6861)"/>
<path fill-rule="evenodd" clip-rule="evenodd" d="M43.6602 67.6201C41.8699 67.6201 40.1531 68.3313 38.8872 69.5971C37.6213 70.863 36.9102 72.5799 36.9102 74.3701V81.1201C36.9102 82.3136 36.4361 83.4582 35.5921 84.3021C34.7482 85.146 33.6036 85.6201 32.4102 85.6201C31.2167 85.6201 30.0721 85.146 29.2282 84.3021C28.3843 83.4582 27.9102 82.3136 27.9102 81.1201V74.3701C27.9102 70.193 29.5695 66.1869 32.5232 63.2332C35.4769 60.2795 39.483 58.6201 43.6602 58.6201C47.8373 58.6201 51.8434 60.2795 54.7971 63.2332C57.7508 66.1869 59.4102 70.193 59.4102 74.3701V76.6201C59.4102 77.8136 58.9361 78.9582 58.0921 79.8021C57.2482 80.646 56.1036 81.1201 54.9102 81.1201C53.7167 81.1201 52.5721 80.646 51.7282 79.8021C50.8843 78.9582 50.4102 77.8136 50.4102 76.6201V74.3701C50.4102 72.5799 49.699 70.863 48.4331 69.5971C47.1673 68.3313 45.4504 67.6201 43.6602 67.6201Z" fill="url(#paint2_linear_5768_6861)"/>
<path d="M70.4316 50.7451C70.4316 54.3255 71.854 57.7593 74.3857 60.2911C76.9174 62.8228 80.3512 64.2451 83.9316 64.2451C87.5121 64.2451 90.9458 62.8228 93.4776 60.2911C96.0093 57.7593 97.4316 54.3255 97.4316 50.7451C97.4316 47.1647 96.0093 43.7309 93.4776 41.1992C90.9458 38.6674 87.5121 37.2451 83.9316 37.2451C80.3512 37.2451 76.9174 38.6674 74.3857 41.1992C71.854 43.7309 70.4316 47.1647 70.4316 50.7451Z" fill="url(#paint3_linear_5768_6861)"/>
<path fill-rule="evenodd" clip-rule="evenodd" d="M83.9316 55.2451C82.7382 55.2451 81.5936 54.771 80.7497 53.9271C79.9057 53.0832 79.4316 51.9386 79.4316 50.7451C79.4316 49.5516 79.9057 48.4071 80.7497 47.5631C81.5936 46.7192 82.7382 46.2451 83.9316 46.2451C85.1251 46.2451 86.2697 46.7192 87.1136 47.5631C87.9575 48.4071 88.4316 49.5516 88.4316 50.7451C88.4316 51.9386 87.9575 53.0832 87.1136 53.9271C86.2697 54.771 85.1251 55.2451 83.9316 55.2451ZM83.9316 64.2451C82.1588 64.2451 80.4033 63.8959 78.7654 63.2175C77.1275 62.5391 75.6393 61.5447 74.3857 60.2911C73.1321 59.0375 72.1377 57.5492 71.4593 55.9113C70.7808 54.2734 70.4316 52.518 70.4316 50.7451C70.4316 48.9723 70.7808 47.2168 71.4593 45.5789C72.1377 43.941 73.1321 42.4528 74.3857 41.1992C75.6393 39.9456 77.1275 38.9512 78.7654 38.2727C80.4033 37.5943 82.1588 37.2451 83.9316 37.2451C87.5121 37.2451 90.9458 38.6674 93.4776 41.1992C96.0093 43.7309 97.4316 47.1647 97.4316 50.7451C97.4316 54.3255 96.0093 57.7593 93.4776 60.2911C90.9458 62.8228 87.5121 64.2451 83.9316 64.2451Z" fill="url(#paint4_linear_5768_6861)"/>
<path fill-rule="evenodd" clip-rule="evenodd" d="M83.7129 67.6201C85.5031 67.6201 87.22 68.3313 88.4859 69.5971C89.7517 70.863 90.4629 72.5799 90.4629 74.3701V81.1201C90.4629 82.3136 90.937 83.4582 91.7809 84.3021C92.6248 85.146 93.7694 85.6201 94.9629 85.6201C96.1564 85.6201 97.301 85.146 98.1449 84.3021C98.9888 83.4582 99.4629 82.3136 99.4629 81.1201V74.3701C99.4629 70.193 97.8035 66.1869 94.8498 63.2332C91.8961 60.2795 87.8901 58.6201 83.7129 58.6201C79.5357 58.6201 75.5297 60.2795 72.576 63.2332C69.6223 66.1869 67.9629 70.193 67.9629 74.3701V76.6201C67.9629 77.8136 68.437 78.9582 69.2809 79.8021C70.1248 80.646 71.2694 81.1201 72.4629 81.1201C73.6564 81.1201 74.801 80.646 75.6449 79.8021C76.4888 78.9582 76.9629 77.8136 76.9629 76.6201V74.3701C76.9629 72.5799 77.674 70.863 78.9399 69.5971C80.2058 68.3313 81.9227 67.6201 83.7129 67.6201Z" fill="url(#paint5_linear_5768_6861)"/>
<path fill-rule="evenodd" clip-rule="evenodd" d="M63.9102 79.9951C62.1199 79.9951 60.4031 80.7063 59.1372 81.9721C57.8713 83.238 57.1602 84.9549 57.1602 86.7451V93.4951C57.1602 94.6886 56.686 95.8332 55.8421 96.6771C54.9982 97.521 53.8536 97.9951 52.6602 97.9951C51.4667 97.9951 50.3221 97.521 49.4782 96.6771C48.6343 95.8332 48.1602 94.6886 48.1602 93.4951V86.7451C48.1602 82.568 49.8195 78.5619 52.7732 75.6082C55.7269 72.6545 59.733 70.9951 63.9102 70.9951C68.0873 70.9951 72.0934 72.6545 75.0471 75.6082C78.0008 78.5619 79.6602 82.568 79.6602 86.7451V93.4951C79.6602 94.6886 79.1861 95.8332 78.3421 96.6771C77.4982 97.521 76.3536 97.9951 75.1602 97.9951C73.9667 97.9951 72.8221 97.521 71.9782 96.6771C71.1343 95.8332 70.6602 94.6886 70.6602 93.4951V86.7451C70.6602 84.9549 69.949 83.238 68.6831 81.9721C67.4173 80.7063 65.7004 79.9951 63.9102 79.9951Z" fill="url(#paint6_linear_5768_6861)"/>
<path d="M77.1816 63.1201C77.1816 66.7005 75.7593 70.1343 73.2276 72.6661C70.6958 75.1978 67.2621 76.6201 63.6816 76.6201C60.1012 76.6201 56.6674 75.1978 54.1357 72.6661C51.604 70.1343 50.1816 66.7005 50.1816 63.1201C50.1816 59.5397 51.604 56.1059 54.1357 53.5742C56.6674 51.0424 60.1012 49.6201 63.6816 49.6201C67.2621 49.6201 70.6958 51.0424 73.2276 53.5742C75.7593 56.1059 77.1816 59.5397 77.1816 63.1201Z" fill="url(#paint7_linear_5768_6861)"/>
<path fill-rule="evenodd" clip-rule="evenodd" d="M63.6816 67.6201C64.8751 67.6201 66.0197 67.146 66.8636 66.3021C67.7075 65.4582 68.1816 64.3136 68.1816 63.1201C68.1816 61.9266 67.7075 60.7821 66.8636 59.9381C66.0197 59.0942 64.8751 58.6201 63.6816 58.6201C62.4882 58.6201 61.3436 59.0942 60.4997 59.9381C59.6557 60.7821 59.1816 61.9266 59.1816 63.1201C59.1816 64.3136 59.6557 65.4582 60.4997 66.3021C61.3436 67.146 62.4882 67.6201 63.6816 67.6201ZM63.6816 76.6201C67.2621 76.6201 70.6958 75.1978 73.2276 72.6661C75.7593 70.1343 77.1816 66.7005 77.1816 63.1201C77.1816 59.5397 75.7593 56.1059 73.2276 53.5742C70.6958 51.0424 67.2621 49.6201 63.6816 49.6201C60.1012 49.6201 56.6674 51.0424 54.1357 53.5742C51.604 56.1059 50.1816 59.5397 50.1816 63.1201C50.1816 66.7005 51.604 70.1343 54.1357 72.6661C56.6674 75.1978 60.1012 76.6201 63.6816 76.6201Z" fill="url(#paint8_linear_5768_6861)"/>
<path d="M32.1816 67.6201H54.6816V85.6201H32.1816V67.6201ZM72.6816 67.6201H95.1816V85.6201H72.6816V67.6201Z" fill="url(#paint9_linear_5768_6861)"/>
<path d="M54.6816 76.6201H72.6816L74.9316 97.9951H52.4316L54.6816 76.6201Z" fill="url(#paint10_linear_5768_6861)"/>
</g>
<path fill-rule="evenodd" clip-rule="evenodd" d="M35.5566 56.3701C37.9436 56.3701 40.2328 55.4219 41.9206 53.7341C43.6084 52.0462 44.5566 49.7571 44.5566 47.3701C44.5566 44.9832 43.6084 42.694 41.9206 41.0062C40.2328 39.3183 37.9436 38.3701 35.5566 38.3701C33.1697 38.3701 30.8805 39.3183 29.1927 41.0062C27.5049 42.694 26.5566 44.9832 26.5566 47.3701C26.5566 49.7571 27.5049 52.0462 29.1927 53.7341C30.8805 55.4219 33.1697 56.3701 35.5566 56.3701ZM35.5566 60.8701C37.3295 60.8701 39.085 60.5209 40.7229 59.8425C42.3608 59.1641 43.849 58.1697 45.1026 56.9161C46.3562 55.6625 47.3506 54.1742 48.029 52.5363C48.7075 50.8984 49.0566 49.143 49.0566 47.3701C49.0566 45.5973 48.7075 43.8418 48.029 42.2039C47.3506 40.566 46.3562 39.0778 45.1026 37.8242C43.849 36.5706 42.3608 35.5762 40.7229 34.8977C39.085 34.2193 37.3295 33.8701 35.5566 33.8701C31.9762 33.8701 28.5424 35.2924 26.0107 37.8242C23.479 40.3559 22.0566 43.7897 22.0566 47.3701C22.0566 50.9505 23.479 54.3843 26.0107 56.9161C28.5424 59.4478 31.9762 60.8701 35.5566 60.8701Z" fill="url(#paint11_linear_5768_6861)"/>
<path fill-rule="evenodd" clip-rule="evenodd" d="M30.3996 55.9026C30.6092 56.1116 30.7754 56.3599 30.8888 56.6333C31.0023 56.9066 31.0607 57.1997 31.0607 57.4956C31.0607 57.7916 31.0023 58.0846 30.8888 58.358C30.7754 58.6313 30.6092 58.8796 30.3996 59.0886L28.8786 60.6051C25.9515 63.533 24.307 67.5035 24.3066 71.6436V79.9956C24.3066 80.5924 24.0696 81.1647 23.6476 81.5866C23.2257 82.0086 22.6534 82.2456 22.0566 82.2456C21.4599 82.2456 20.8876 82.0086 20.4657 81.5866C20.0437 81.1647 19.8066 80.5924 19.8066 79.9956V71.6436C19.8073 66.3101 21.9261 61.1952 25.6971 57.4236L27.2136 55.9026C27.4226 55.6931 27.6709 55.5268 27.9443 55.4134C28.2176 55.3 28.5107 55.2416 28.8066 55.2416C29.1026 55.2416 29.3956 55.3 29.669 55.4134C29.9423 55.5268 30.1906 55.6931 30.3996 55.9026ZM83.4636 54.5526C83.2541 54.7616 83.0879 55.0099 82.9744 55.2833C82.861 55.5566 82.8026 55.8497 82.8026 56.1456C82.8026 56.4416 82.861 56.7346 82.9744 57.008C83.0879 57.2813 83.2541 57.5296 83.4636 57.7386L84.9846 59.2551C87.9117 62.183 89.5563 66.1535 89.5566 70.2936V79.9956C89.5566 80.5924 89.7937 81.1647 90.2157 81.5866C90.6376 82.0086 91.2099 82.2456 91.8066 82.2456C92.4034 82.2456 92.9757 82.0086 93.3976 81.5866C93.8196 81.1647 94.0566 80.5924 94.0566 79.9956V70.2936C94.056 64.9601 91.9372 59.8452 88.1661 56.0736L86.6496 54.5526C86.4406 54.3431 86.1923 54.1768 85.919 54.0634C85.6456 53.95 85.3526 53.8916 85.0566 53.8916C84.7607 53.8916 84.4676 53.95 84.1943 54.0634C83.9209 54.1768 83.6726 54.3431 83.4636 54.5526Z" fill="url(#paint12_linear_5768_6861)"/>
<path fill-rule="evenodd" clip-rule="evenodd" d="M76.0566 56.3701C73.6697 56.3701 71.3805 55.4219 69.6927 53.7341C68.0049 52.0462 67.0566 49.7571 67.0566 47.3701C67.0566 44.9832 68.0049 42.694 69.6927 41.0062C71.3805 39.3183 73.6697 38.3701 76.0566 38.3701C78.4436 38.3701 80.7328 39.3183 82.4206 41.0062C84.1084 42.694 85.0566 44.9832 85.0566 47.3701C85.0566 49.7571 84.1084 52.0462 82.4206 53.7341C80.7328 55.4219 78.4436 56.3701 76.0566 56.3701ZM76.0566 60.8701C74.2838 60.8701 72.5283 60.5209 70.8904 59.8425C69.2525 59.1641 67.7643 58.1697 66.5107 56.9161C65.2571 55.6625 64.2627 54.1742 63.5843 52.5363C62.9058 50.8984 62.5566 49.143 62.5566 47.3701C62.5566 45.5973 62.9058 43.8418 63.5843 42.2039C64.2627 40.566 65.2571 39.0778 66.5107 37.8242C67.7643 36.5706 69.2525 35.5762 70.8904 34.8977C72.5283 34.2193 74.2838 33.8701 76.0566 33.8701C79.6371 33.8701 83.0708 35.2924 85.6026 37.8242C88.1343 40.3559 89.5566 43.7897 89.5566 47.3701C89.5566 50.9505 88.1343 54.3843 85.6026 56.9161C83.0708 59.4478 79.6371 60.8701 76.0566 60.8701ZM55.8066 75.4951C52.823 75.4951 49.9615 76.6804 47.8517 78.7902C45.7419 80.9 44.5566 83.7614 44.5566 86.7451V92.5951C44.5566 93.1919 44.3196 93.7641 43.8976 94.1861C43.4757 94.6081 42.9034 94.8451 42.3066 94.8451C41.7099 94.8451 41.1376 94.6081 40.7157 94.1861C40.2937 93.7641 40.0566 93.1919 40.0566 92.5951V86.7451C40.0566 82.568 41.716 78.5619 44.6697 75.6082C47.6234 72.6545 51.6295 70.9951 55.8066 70.9951C59.9838 70.9951 63.9899 72.6545 66.9436 75.6082C69.8973 78.5619 71.5566 82.568 71.5566 86.7451V92.5951C71.5566 93.1919 71.3196 93.7641 70.8976 94.1861C70.4757 94.6081 69.9034 94.8451 69.3066 94.8451C68.7099 94.8451 68.1376 94.6081 67.7156 94.1861C67.2937 93.7641 67.0566 93.1919 67.0566 92.5951V86.7451C67.0566 85.2677 66.7657 83.8048 66.2003 82.4399C65.6349 81.075 64.8063 79.8348 63.7616 78.7902C62.7169 77.7455 61.4767 76.9168 60.1118 76.3515C58.7469 75.7861 57.284 75.4951 55.8066 75.4951Z" fill="url(#paint13_linear_5768_6861)"/>
<path fill-rule="evenodd" clip-rule="evenodd" d="M55.8066 68.7451C58.1936 68.7451 60.4828 67.7969 62.1706 66.1091C63.8584 64.4212 64.8066 62.1321 64.8066 59.7451C64.8066 57.3582 63.8584 55.069 62.1706 53.3812C60.4828 51.6933 58.1936 50.7451 55.8066 50.7451C53.4197 50.7451 51.1305 51.6933 49.4427 53.3812C47.7549 55.069 46.8066 57.3582 46.8066 59.7451C46.8066 62.1321 47.7549 64.4212 49.4427 66.1091C51.1305 67.7969 53.4197 68.7451 55.8066 68.7451ZM55.8066 73.2451C59.3871 73.2451 62.8208 71.8228 65.3526 69.2911C67.8843 66.7593 69.3066 63.3255 69.3066 59.7451C69.3066 56.1647 67.8843 52.7309 65.3526 50.1992C62.8208 47.6674 59.3871 46.2451 55.8066 46.2451C52.2262 46.2451 48.7924 47.6674 46.2607 50.1992C43.729 52.7309 42.3066 56.1647 42.3066 59.7451C42.3066 63.3255 43.729 66.7593 46.2607 69.2911C48.7924 71.8228 52.2262 73.2451 55.8066 73.2451Z" fill="url(#paint14_linear_5768_6861)"/>
<path d="M20.4672 9.40625H5.62009C4.9252 9.40625 4.25877 9.68229 3.76741 10.1737C3.27604 10.665 3 11.3314 3 12.0263V22.5067C3 23.2016 3.27604 23.868 3.76741 24.3594C4.25877 24.8507 4.9252 25.1268 5.62009 25.1268H17.4541L21.6288 28.3669C21.7529 28.4587 21.8991 28.5159 22.0525 28.5328C22.206 28.5497 22.3611 28.5256 22.5022 28.463C22.6508 28.3922 22.7764 28.2809 22.8645 28.1418C22.9526 28.0027 22.9995 27.8416 23 27.677V12.0263C23.0004 11.3463 22.7364 10.6928 22.2637 10.2039C21.7911 9.71494 21.1469 9.42892 20.4672 9.40625Z" fill="url(#paint15_linear_5768_6861)"/>
<path d="M15.8001 18.0197C15.8001 17.7801 15.8953 17.5503 16.0647 17.3808C16.2341 17.2114 16.464 17.1162 16.7036 17.1162C16.9432 17.1162 17.173 17.2114 17.3424 17.3808C17.5119 17.5503 17.607 17.7801 17.607 18.0197C17.607 18.2593 17.5119 18.4891 17.3424 18.6585C17.173 18.828 16.9432 18.9232 16.7036 18.9232C16.464 18.9232 16.2341 18.828 16.0647 18.6585C15.8953 18.4891 15.8001 18.2593 15.8001 18.0197ZM12.1862 18.0197C12.1862 17.7801 12.2814 17.5503 12.4508 17.3808C12.6202 17.2114 12.85 17.1162 13.0897 17.1162C13.3293 17.1162 13.5591 17.2114 13.7285 17.3808C13.8979 17.5503 13.9931 17.7801 13.9931 18.0197C13.9931 18.2593 13.8979 18.4891 13.7285 18.6585C13.5591 18.828 13.3293 18.9232 13.0897 18.9232C12.85 18.9232 12.6202 18.828 12.4508 18.6585C12.2814 18.4891 12.1862 18.2593 12.1862 18.0197ZM8.57227 18.0197C8.57227 17.7801 8.66745 17.5503 8.83689 17.3808C9.00632 17.2114 9.23613 17.1162 9.47574 17.1162C9.71536 17.1162 9.94516 17.2114 10.1146 17.3808C10.284 17.5503 10.3792 17.7801 10.3792 18.0197C10.3792 18.2593 10.284 18.4891 10.1146 18.6585C9.94516 18.828 9.71536 18.9232 9.47574 18.9232C9.23613 18.9232 9.00632 18.828 8.83689 18.6585C8.66745 18.4891 8.57227 18.2593 8.57227 18.0197Z" fill="#EEF0FE"/>
<defs>
<linearGradient id="paint0_linear_5768_6861" x1="27.3407" y1="37.2451" x2="60.9995" y2="48.626" gradientUnits="userSpaceOnUse">
<stop stop-color="#3CD1D1"/>
<stop offset="1" stop-color="#5168F6"/>
</linearGradient>
<linearGradient id="paint1_linear_5768_6861" x1="27.3407" y1="37.2451" x2="60.9995" y2="48.626" gradientUnits="userSpaceOnUse">
<stop stop-color="#3CD1D1"/>
<stop offset="1" stop-color="#5168F6"/>
</linearGradient>
<linearGradient id="paint2_linear_5768_6861" x1="24.8874" y1="58.6201" x2="62.753" y2="73.5574" gradientUnits="userSpaceOnUse">
<stop stop-color="#3CD1D1"/>
<stop offset="1" stop-color="#5168F6"/>
</linearGradient>
<linearGradient id="paint3_linear_5768_6861" x1="67.8407" y1="37.2451" x2="101.499" y2="48.626" gradientUnits="userSpaceOnUse">
<stop stop-color="#3CD1D1"/>
<stop offset="1" stop-color="#5168F6"/>
</linearGradient>
<linearGradient id="paint4_linear_5768_6861" x1="67.8407" y1="37.2451" x2="101.499" y2="48.626" gradientUnits="userSpaceOnUse">
<stop stop-color="#3CD1D1"/>
<stop offset="1" stop-color="#5168F6"/>
</linearGradient>
<linearGradient id="paint5_linear_5768_6861" x1="64.9402" y1="58.6201" x2="102.806" y2="73.5574" gradientUnits="userSpaceOnUse">
<stop stop-color="#3CD1D1"/>
<stop offset="1" stop-color="#5168F6"/>
</linearGradient>
<linearGradient id="paint6_linear_5768_6861" x1="45.1374" y1="70.9951" x2="83.003" y2="85.9324" gradientUnits="userSpaceOnUse">
<stop stop-color="#3CD1D1"/>
<stop offset="1" stop-color="#5168F6"/>
</linearGradient>
<linearGradient id="paint7_linear_5768_6861" x1="47.5907" y1="49.6201" x2="81.2495" y2="61.001" gradientUnits="userSpaceOnUse">
<stop stop-color="#3CD1D1"/>
<stop offset="1" stop-color="#5168F6"/>
</linearGradient>
<linearGradient id="paint8_linear_5768_6861" x1="47.5907" y1="49.6201" x2="81.2495" y2="61.001" gradientUnits="userSpaceOnUse">
<stop stop-color="#3CD1D1"/>
<stop offset="1" stop-color="#5168F6"/>
</linearGradient>
<linearGradient id="paint9_linear_5768_6861" x1="26.1362" y1="67.6201" x2="62.593" y2="110.765" gradientUnits="userSpaceOnUse">
<stop stop-color="#3CD1D1"/>
<stop offset="1" stop-color="#5168F6"/>
</linearGradient>
<linearGradient id="paint10_linear_5768_6861" x1="50.2725" y1="76.6201" x2="78.014" y2="86.4939" gradientUnits="userSpaceOnUse">
<stop stop-color="#3CD1D1"/>
<stop offset="1" stop-color="#5168F6"/>
</linearGradient>
<linearGradient id="paint11_linear_5768_6861" x1="19.4657" y1="33.8701" x2="53.1245" y2="45.251" gradientUnits="userSpaceOnUse">
<stop stop-color="#3CD1D1"/>
<stop offset="1" stop-color="#5168F6"/>
</linearGradient>
<linearGradient id="paint12_linear_5768_6861" x1="12.6816" y1="53.8916" x2="70.4974" y2="105.084" gradientUnits="userSpaceOnUse">
<stop stop-color="#3CD1D1"/>
<stop offset="1" stop-color="#5168F6"/>
</linearGradient>
<linearGradient id="paint13_linear_5768_6861" x1="35.3066" y1="33.8701" x2="99.2513" y2="51.4226" gradientUnits="userSpaceOnUse">
<stop stop-color="#3CD1D1"/>
<stop offset="1" stop-color="#5168F6"/>
</linearGradient>
<linearGradient id="paint14_linear_5768_6861" x1="39.7157" y1="46.2451" x2="73.3745" y2="57.626" gradientUnits="userSpaceOnUse">
<stop stop-color="#3CD1D1"/>
<stop offset="1" stop-color="#5168F6"/>
</linearGradient>
<linearGradient id="paint15_linear_5768_6861" x1="3" y1="18.9721" x2="23" y2="18.9721" gradientUnits="userSpaceOnUse">
<stop stop-color="#509DF7"/>
<stop offset="1" stop-color="#5168F6"/>
</linearGradient>
</defs>
</svg>
