<svg width="19" height="16" viewBox="0 0 19 16" fill="none" xmlns="http://www.w3.org/2000/svg">
<path d="M18.1872 7.14681L14.5875 9.95453L15.6842 14.1535C15.7447 14.3814 15.7292 14.6204 15.6395 14.8404C15.5498 15.0603 15.3899 15.2513 15.1802 15.3892C14.9705 15.527 14.7203 15.6057 14.4612 15.6151C14.2021 15.6245 13.9457 15.5642 13.7244 15.442L9.68471 13.1946L5.64263 15.442C5.42139 15.5635 5.16531 15.6232 4.90664 15.6134C4.64797 15.6037 4.39827 15.525 4.18899 15.3872C3.97971 15.2494 3.8202 15.0588 3.73055 14.8392C3.6409 14.6197 3.62511 14.3811 3.68519 14.1535L4.7859 9.95453L1.18618 7.14681C0.990437 6.99389 0.84887 6.79223 0.779161 6.56701C0.709453 6.34179 0.714692 6.103 0.794226 5.88046C0.873759 5.65792 1.02406 5.46149 1.22636 5.31571C1.42866 5.16992 1.674 5.08123 1.93172 5.06073L6.65135 4.71655L8.47201 0.733825C8.57056 0.516769 8.73828 0.331105 8.95387 0.200437C9.16945 0.0697691 9.42315 0 9.68271 0C9.94227 0 10.196 0.0697691 10.4116 0.200437C10.6271 0.331105 10.7949 0.516769 10.8934 0.733825L12.7133 4.71655L17.4329 5.06073C17.6911 5.08047 17.9372 5.16866 18.1402 5.31425C18.3433 5.45983 18.4943 5.65634 18.5743 5.87915C18.6543 6.10196 18.6598 6.34117 18.5901 6.5668C18.5204 6.79242 18.3786 6.99444 18.1824 7.14754L18.1872 7.14681Z" fill="#DDDDDE"/>
</svg>
