<svg width="16" height="17" viewBox="0 0 16 17" fill="none" xmlns="http://www.w3.org/2000/svg">
<g clip-path="url(#clip0_652_5615)">
<path fill-rule="evenodd" clip-rule="evenodd" d="M13.4178 2.6051C13.0427 2.23016 12.5341 2.01953 12.0038 2.01953C11.4734 2.01953 10.9648 2.23016 10.5898 2.6051L10.1184 3.0771L13.4184 6.3771L13.8891 5.90577C14.0748 5.72005 14.2222 5.49956 14.3227 5.25688C14.4233 5.01421 14.475 4.75411 14.475 4.49144C14.475 4.22877 14.4233 3.96867 14.3227 3.72599C14.2222 3.48332 14.0748 3.26283 13.8891 3.0771L13.4178 2.6051ZM12.4751 7.31977L9.17509 4.01977L3.11509 10.0804C2.98248 10.2131 2.88984 10.3803 2.84775 10.5631L2.16175 13.5331C2.13619 13.6434 2.13913 13.7583 2.17027 13.8671C2.20142 13.9759 2.25976 14.075 2.33979 14.1551C2.41983 14.2351 2.51892 14.2934 2.62773 14.3246C2.73654 14.3557 2.85149 14.3587 2.96175 14.3331L5.93242 13.6478C6.11496 13.6056 6.28197 13.5129 6.41442 13.3804L12.4751 7.31977Z" fill="#5168F6"/>
</g>
<defs>
<clipPath id="clip0_652_5615">
<rect width="16" height="16" fill="white" transform="translate(0 0.5)"/>
</clipPath>
</defs>
</svg>
