<svg width="17" height="17" viewBox="0 0 17 17" fill="none" xmlns="http://www.w3.org/2000/svg">
<path fill-rule="evenodd" clip-rule="evenodd" d="M14.0408 2.85559C13.6657 2.48065 13.1571 2.27002 12.6268 2.27002C12.0965 2.27002 11.5879 2.48065 11.2128 2.85559L10.7415 3.32759L14.0415 6.62759L14.5121 6.15626C14.6979 5.97054 14.8452 5.75004 14.9458 5.50737C15.0463 5.2647 15.098 5.0046 15.098 4.74193C15.098 4.47925 15.0463 4.21915 14.9458 3.97648C14.8452 3.73381 14.6979 3.51331 14.5121 3.32759L14.0408 2.85559ZM13.0981 7.57026L9.79813 4.27026L3.73813 10.3309C3.60552 10.4636 3.51288 10.6308 3.4708 10.8136L2.7848 13.7836C2.75924 13.8939 2.76217 14.0088 2.79332 14.1176C2.82447 14.2264 2.88281 14.3255 2.96284 14.4056C3.04287 14.4856 3.14196 14.5439 3.25078 14.5751C3.35959 14.6062 3.47454 14.6092 3.5848 14.5836L6.55547 13.8983C6.738 13.8561 6.90502 13.7634 7.03747 13.6309L13.0981 7.57026Z" fill="#F9F9F9"/>
</svg>
