<svg width="14" height="14" viewBox="0 0 14 14" fill="none" xmlns="http://www.w3.org/2000/svg">
<path d="M7 7.5C7.82843 7.5 8.5 6.82843 8.5 6C8.5 5.17157 7.82843 4.5 7 4.5C6.17157 4.5 5.5 5.17157 5.5 6C5.5 6.82843 6.17157 7.5 7 7.5Z" fill="#5168F6"/>
<path d="M7 12C9 10 11 8.20914 11 6C11 3.79086 9.20914 2 7 2C4.79086 2 3 3.79086 3 6C3 8.20914 5 10 7 12Z" fill="#5168F6"/>
<path d="M7 7.5C7.82843 7.5 8.5 6.82843 8.5 6C8.5 5.17157 7.82843 4.5 7 4.5C6.17157 4.5 5.5 5.17157 5.5 6C5.5 6.82843 6.17157 7.5 7 7.5Z" stroke="#5168F6" stroke-width="1.6" stroke-linecap="round" stroke-linejoin="round"/>
<path d="M7 12C9 10 11 8.20914 11 6C11 3.79086 9.20914 2 7 2C4.79086 2 3 3.79086 3 6C3 8.20914 5 10 7 12Z" stroke="#5168F6" stroke-width="1.6" stroke-linecap="round" stroke-linejoin="round"/>
<path d="M8.8002 5.8C8.8002 6.79411 7.99431 7.6 7.0002 7.6C6.00608 7.6 5.2002 6.79411 5.2002 5.8C5.2002 4.80589 6.00608 4 7.0002 4C7.99431 4 8.8002 4.80589 8.8002 5.8Z" fill="white"/>
</svg>
