<svg width="10" height="10" viewBox="0 0 10 10" fill="none" xmlns="http://www.w3.org/2000/svg">
<path fill-rule="evenodd" clip-rule="evenodd" d="M4.44975 0.757359C4.44975 0.481217 4.67361 0.257359 4.94975 0.257359C5.22589 0.257359 5.44975 0.481217 5.44975 0.757359L5.44975 4.5H9.19239C9.46853 4.5 9.69239 4.72386 9.69239 5C9.69239 5.27614 9.46853 5.5 9.19239 5.5H5.44975V9.24264C5.44975 9.51878 5.22589 9.74264 4.94975 9.74264C4.6736 9.74264 4.44975 9.51878 4.44975 9.24264V5.5L0.707107 5.5C0.430964 5.5 0.207107 5.27614 0.207107 5C0.207107 4.72386 0.430964 4.5 0.707107 4.5L4.44975 4.5L4.44975 0.757359Z" fill="#949494"/>
</svg>
