<svg width="20" height="20" viewBox="0 0 20 20" fill="none" xmlns="http://www.w3.org/2000/svg">
<rect x="0.398438" y="0.0163574" width="19.2" height="19.2" rx="9.6" fill="#F6F6F7"/>
<path fill-rule="evenodd" clip-rule="evenodd" d="M13.4349 5.05048C13.7473 4.73806 14.2539 4.73806 14.5663 5.05048C14.8787 5.3629 14.8787 5.86943 14.5663 6.18185L11.1302 9.61795L14.563 13.0507C14.8754 13.3631 14.8754 13.8697 14.563 14.1821C14.2505 14.4945 13.744 14.4945 13.4316 14.1821L9.99881 10.7493L6.56628 14.1818C6.25386 14.4943 5.74733 14.4943 5.43491 14.1818C5.12249 13.8694 5.12249 13.3629 5.43491 13.0505L8.86744 9.61795L5.43158 6.18209C5.11916 5.86967 5.11916 5.36314 5.43158 5.05072C5.744 4.7383 6.25053 4.7383 6.56295 5.05072L9.99881 8.48658L13.4349 5.05048Z" fill="#7B7B7C"/>
</svg>
