<svg width="21" height="20" viewBox="0 0 21 20" fill="none" xmlns="http://www.w3.org/2000/svg">
<path fill-rule="evenodd" clip-rule="evenodd" d="M3.1 17.4H10.5C14.5869 17.4 17.9 14.0869 17.9 10C17.9 5.91309 14.5869 2.6 10.5 2.6C6.41309 2.6 3.1 5.91309 3.1 10V17.4ZM10.5 1C5.52944 1 1.5 5.02944 1.5 10V17.4V19H3.1H10.5C15.4706 19 19.5 14.9706 19.5 10C19.5 5.02944 15.4706 1 10.5 1ZM7 9.1C7 8.65817 7.35817 8.3 7.8 8.3H13.2C13.6418 8.3 14 8.65817 14 9.1C14 9.54183 13.6418 9.9 13.2 9.9H7.8C7.35817 9.9 7 9.54183 7 9.1ZM7.8 11.9C7.35817 11.9 7 12.2582 7 12.7C7 13.1418 7.35817 13.5 7.8 13.5H10.5C10.9418 13.5 11.3 13.1418 11.3 12.7C11.3 12.2582 10.9418 11.9 10.5 11.9H7.8Z" fill="#5168F6"/>
</svg>
