<svg width="21" height="20" viewBox="0 0 21 20" fill="none" xmlns="http://www.w3.org/2000/svg">
<g clip-path="url(#clip0_3159_10549)">
<path fill-rule="evenodd" clip-rule="evenodd" d="M10.4938 3.89684C8.69442 1.79317 5.69377 1.22729 3.43923 3.15362C1.18468 5.07995 0.867271 8.30069 2.63778 10.579C4.10984 12.4732 8.56479 16.4683 10.0249 17.7614C10.1882 17.906 10.2699 17.9784 10.3652 18.0068C10.4483 18.0316 10.5393 18.0316 10.6225 18.0068C10.7178 17.9784 10.7994 17.906 10.9628 17.7614C12.4229 16.4683 16.8778 12.4732 18.3499 10.579C20.1204 8.30069 19.8417 5.05969 17.5484 3.15362C15.2551 1.24755 12.2933 1.79317 10.4938 3.89684Z" stroke="#5168F6" stroke-width="1.6" stroke-linecap="round" stroke-linejoin="round"/>
</g>
<defs>
<clipPath id="clip0_3159_10549">
<rect width="20" height="20" fill="white" transform="translate(0.5)"/>
</clipPath>
</defs>
</svg>
