<svg width="150" height="90" viewBox="0 0 150 90" fill="none" xmlns="http://www.w3.org/2000/svg">
<path d="M31.2009 1H8.93013C7.8878 1 6.88815 1.41407 6.15111 2.15111C5.41407 2.88815 5 3.8878 5 4.93013V20.6507C5 21.693 5.41407 22.6926 6.15111 23.4297C6.88815 24.1667 7.8878 24.5808 8.93013 24.5808H26.6812L32.9432 29.441C33.1294 29.5787 33.3487 29.6645 33.5788 29.6898C33.8089 29.7151 34.0417 29.679 34.2533 29.5852C34.4762 29.479 34.6646 29.312 34.7967 29.1033C34.9288 28.8947 34.9993 28.653 35 28.4061V4.93013C35.0006 3.9101 34.6045 2.92981 33.8956 2.19642C33.1866 1.46303 32.2203 1.034 31.2009 1Z" fill="url(#paint0_linear_5375_5658)"/>
<path d="M24.1972 13.9197C24.1972 13.5602 24.34 13.2155 24.5941 12.9614C24.8483 12.7072 25.193 12.5645 25.5524 12.5645C25.9119 12.5645 26.2566 12.7072 26.5107 12.9614C26.7649 13.2155 26.9076 13.5602 26.9076 13.9197C26.9076 14.2791 26.7649 14.6238 26.5107 14.878C26.2566 15.1321 25.9119 15.2749 25.5524 15.2749C25.193 15.2749 24.8483 15.1321 24.5941 14.878C24.34 14.6238 24.1972 14.2791 24.1972 13.9197ZM18.7763 13.9197C18.7763 13.5602 18.9191 13.2155 19.1733 12.9614C19.4274 12.7072 19.7721 12.5645 20.1316 12.5645C20.491 12.5645 20.8357 12.7072 21.0898 12.9614C21.344 13.2155 21.4868 13.5602 21.4868 13.9197C21.4868 14.2791 21.344 14.6238 21.0898 14.878C20.8357 15.1321 20.491 15.2749 20.1316 15.2749C19.7721 15.2749 19.4274 15.1321 19.1733 14.878C18.9191 14.6238 18.7763 14.2791 18.7763 13.9197ZM13.3555 13.9197C13.3555 13.5602 13.4983 13.2155 13.7524 12.9614C14.0066 12.7072 14.3513 12.5645 14.7107 12.5645C15.0701 12.5645 15.4148 12.7072 15.669 12.9614C15.9231 13.2155 16.0659 13.5602 16.0659 13.9197C16.0659 14.2791 15.9231 14.6238 15.669 14.878C15.4148 15.1321 15.0701 15.2749 14.7107 15.2749C14.3513 15.2749 14.0066 15.1321 13.7524 14.878C13.4983 14.6238 13.3555 14.2791 13.3555 13.9197Z" fill="#EEF0FE"/>
<path d="M40.8516 38.6458H108.143V72.2916H40.8516V38.6458Z" fill="#EEF0FE"/>
<path d="M40.8516 72.2917H108.143V79.3751H40.8516V72.2917Z" fill="#A5B1FF"/>
<path d="M79.8105 47.5H101.061V79.375H79.8105V47.5Z" fill="url(#paint1_linear_5375_5658)"/>
<path d="M47.9355 47.5H72.7272V66.9792H47.9355V47.5Z" fill="#C6CEFF"/>
<path d="M49.7051 49.2708H70.9551V65.2083H49.7051V49.2708Z" fill="#A5B1FF"/>
<path d="M96.6335 64.323C96.1022 64.323 95.748 64.6772 95.748 65.2084V68.7501C95.748 69.2813 96.1022 69.6355 96.6335 69.6355C97.1647 69.6355 97.5189 69.2813 97.5189 68.7501V65.2084C97.5189 64.6772 97.1647 64.323 96.6335 64.323Z" fill="#90A4AE"/>
<path d="M74.5 43.958C77.434 43.958 79.8125 41.5795 79.8125 38.6455C79.8125 35.7115 77.434 33.333 74.5 33.333C71.566 33.333 69.1875 35.7115 69.1875 38.6455C69.1875 41.5795 71.566 43.958 74.5 43.958Z" fill="url(#paint2_linear_5375_5658)"/>
<path d="M95.75 43.958C98.684 43.958 101.062 41.5795 101.062 38.6455C101.062 35.7115 98.684 33.333 95.75 33.333C92.816 33.333 90.4375 35.7115 90.4375 38.6455C90.4375 41.5795 92.816 43.958 95.75 43.958Z" fill="url(#paint3_linear_5375_5658)"/>
<path d="M53.25 43.958C56.184 43.958 58.5625 41.5795 58.5625 38.6455C58.5625 35.7115 56.184 33.333 53.25 33.333C50.316 33.333 47.9375 35.7115 47.9375 38.6455C47.9375 41.5795 50.316 43.958 53.25 43.958Z" fill="url(#paint4_linear_5375_5658)"/>
<path d="M102.831 15.625H46.1647C44.2168 15.625 42.623 17.2187 42.623 19.1667V24.4792H106.373V19.1667C106.373 17.2187 104.779 15.625 102.831 15.625ZM69.1855 24.4792H79.8105V38.6458H69.1855V24.4792ZM97.5189 24.4792H88.6647L90.4355 38.6458H101.061L97.5189 24.4792ZM51.4772 24.4792H60.3314L58.5605 38.6458H47.9355L51.4772 24.4792Z" fill="url(#paint5_linear_5375_5658)"/>
<path d="M85.125 43.958C88.059 43.958 90.4375 41.5795 90.4375 38.6455C90.4375 35.7115 88.059 33.333 85.125 33.333C82.191 33.333 79.8125 35.7115 79.8125 38.6455C79.8125 41.5795 82.191 43.958 85.125 43.958Z" fill="#EEF0FE"/>
<path d="M111.688 38.6455C111.688 41.6559 109.385 43.958 106.375 43.958C103.365 43.958 101.062 41.6559 101.062 38.6455C101.062 35.6351 103.365 33.333 106.375 33.333L111.688 38.6455Z" fill="#EEF0FE"/>
<path d="M63.875 43.958C66.809 43.958 69.1875 41.5795 69.1875 38.6455C69.1875 35.7115 66.809 33.333 63.875 33.333C60.941 33.333 58.5625 35.7115 58.5625 38.6455C58.5625 41.5795 60.941 43.958 63.875 43.958Z" fill="#EEF0FE"/>
<path d="M37.3125 38.6455C37.3125 41.6559 39.6146 43.958 42.625 43.958C45.6354 43.958 47.9375 41.6559 47.9375 38.6455C47.9375 35.6351 45.6354 33.333 42.625 33.333L37.3125 38.6455Z" fill="#EEF0FE"/>
<path d="M88.6647 24.4792H79.8105V38.6459H90.4355L88.6647 24.4792ZM106.373 24.4792H97.5189L101.061 38.6459H111.686L106.373 24.4792ZM60.3314 24.4792H69.1855V38.6459H58.5605L60.3314 24.4792ZM42.623 24.4792H51.4772L47.9355 38.6459H37.3105L42.623 24.4792Z" fill="url(#paint6_linear_5375_5658)"/>
<defs>
<linearGradient id="paint0_linear_5375_5658" x1="5" y1="15.3488" x2="35" y2="15.3488" gradientUnits="userSpaceOnUse">
<stop stop-color="#509DF7"/>
<stop offset="1" stop-color="#5168F6"/>
</linearGradient>
<linearGradient id="paint1_linear_5375_5658" x1="79.8105" y1="63.4375" x2="101.061" y2="63.4375" gradientUnits="userSpaceOnUse">
<stop stop-color="#509DF7"/>
<stop offset="1" stop-color="#5168F6"/>
</linearGradient>
<linearGradient id="paint2_linear_5375_5658" x1="69.1875" y1="38.6455" x2="79.8125" y2="38.6455" gradientUnits="userSpaceOnUse">
<stop stop-color="#509DF7"/>
<stop offset="1" stop-color="#5168F6"/>
</linearGradient>
<linearGradient id="paint3_linear_5375_5658" x1="90.4375" y1="38.6455" x2="101.062" y2="38.6455" gradientUnits="userSpaceOnUse">
<stop stop-color="#509DF7"/>
<stop offset="1" stop-color="#5168F6"/>
</linearGradient>
<linearGradient id="paint4_linear_5375_5658" x1="47.9375" y1="38.6455" x2="58.5625" y2="38.6455" gradientUnits="userSpaceOnUse">
<stop stop-color="#509DF7"/>
<stop offset="1" stop-color="#5168F6"/>
</linearGradient>
<linearGradient id="paint5_linear_5375_5658" x1="42.623" y1="27.1354" x2="106.373" y2="27.1354" gradientUnits="userSpaceOnUse">
<stop stop-color="#509DF7"/>
<stop offset="1" stop-color="#5168F6"/>
</linearGradient>
<linearGradient id="paint6_linear_5375_5658" x1="37.3105" y1="31.5626" x2="111.686" y2="31.5626" gradientUnits="userSpaceOnUse">
<stop stop-color="white"/>
<stop offset="1" stop-color="#D5DBFF"/>
</linearGradient>
</defs>
</svg>
