<svg width="16" height="17" viewBox="0 0 16 17" fill="none" xmlns="http://www.w3.org/2000/svg">
<path fill-rule="evenodd" clip-rule="evenodd" d="M12.3841 7.6888C12.3841 10.4502 10.1455 12.6888 7.38411 12.6888C4.62269 12.6888 2.38411 10.4502 2.38411 7.6888C2.38411 4.92738 4.62269 2.6888 7.38411 2.6888C10.1455 2.6888 12.3841 4.92738 12.3841 7.6888ZM11.1469 12.7837C10.0948 13.562 8.79321 14.0221 7.38411 14.0221C3.88631 14.0221 1.05078 11.1866 1.05078 7.6888C1.05078 4.191 3.88631 1.35547 7.38411 1.35547C10.8819 1.35547 13.7174 4.191 13.7174 7.6888C13.7174 9.29687 13.1181 10.765 12.1307 11.8819L14.7553 14.5065C15.0156 14.7668 15.0156 15.1889 14.7553 15.4493C14.4949 15.7096 14.0728 15.7096 13.8124 15.4493L11.1469 12.7837Z" fill="#949494"/>
</svg>
