<svg width="20" height="20" viewBox="0 0 20 20" fill="none" xmlns="http://www.w3.org/2000/svg">
<path d="M17 10C17 13.8661 13.8661 17 10 17C6.1339 17 3 13.8661 3 10C3 6.36982 5.76308 3.38521 9.30095 3.03447C9.68568 2.99632 10 3.31341 10 3.70003V3.70003C10 4.08662 9.68539 4.39551 9.30182 4.44374C8.23762 4.57754 7.22883 5.01505 6.39984 5.71098C5.39126 6.55768 4.71332 7.73273 4.48514 9.02968C4.25697 10.3266 4.49315 11.6625 5.15219 12.8026C5.81124 13.9427 6.85098 14.814 8.08874 15.2636C9.32649 15.7131 10.6831 15.7121 11.9202 15.2607C13.1572 14.8092 14.1956 13.9363 14.8529 12.7952C15.5103 11.6541 15.7444 10.3179 15.5142 9.02128C15.2841 7.72468 14.6044 6.55066 13.5945 5.7055L12.1 7.2V3H16.3L14.5871 4.7129C15.3452 5.36935 15.9531 6.18133 16.3694 7.09363C16.7858 8.00593 17.0008 8.99718 17 10Z" fill="#4A4A4A" stroke="#4A4A4A"/>
</svg>
