<svg width="20" height="20" viewBox="0 0 20 20" fill="none" xmlns="http://www.w3.org/2000/svg">
<path d="M13.937 4.21111C14.1562 4.36043 14.3071 4.5907 14.3565 4.85129C14.4059 5.11187 14.3498 5.38141 14.2005 5.60061C14.0512 5.81981 13.8209 5.97072 13.5603 6.02013C13.2998 6.06955 13.0302 6.01342 12.811 5.86411C11.8878 5.23649 10.7811 4.9359 9.6672 5.0102C8.55333 5.08451 7.49636 5.52944 6.66467 6.27413C5.83299 7.01881 5.27445 8.0204 5.07802 9.11933C4.88159 10.2183 5.05858 11.3513 5.58078 12.338C6.10299 13.3247 6.94038 14.1082 7.95954 14.5638C8.9787 15.0194 10.121 15.1208 11.2045 14.8519C12.288 14.5829 13.2503 13.9592 13.9381 13.0799C14.626 12.2006 14.9998 11.1165 15 10.0001C15 9.73489 15.1054 9.48054 15.2929 9.293C15.4804 9.10547 15.7348 9.00011 16 9.00011C16.2652 9.00011 16.5196 9.10547 16.7071 9.293C16.8947 9.48054 17 9.73489 17 10.0001C16.9998 11.5631 16.4764 13.081 15.5134 14.3121C14.5504 15.5431 13.203 16.4165 11.686 16.7929C10.1691 17.1694 8.56974 17.0273 7.14287 16.3894C5.716 15.7514 4.54369 14.6543 3.81271 13.2728C3.08174 11.8912 2.83416 10.3048 3.10942 8.76626C3.38467 7.2277 4.16694 5.82552 5.33156 4.78313C6.49619 3.74074 7.97618 3.11811 9.53573 3.01444C11.0953 2.91078 12.6447 3.33204 13.937 4.21111Z" fill="#4A4A4A"/>
<path d="M13.5392 12.506C13.4285 12.5768 13.305 12.6251 13.1757 12.6481C13.0464 12.6712 12.9138 12.6686 12.7856 12.6404C12.6573 12.6122 12.5358 12.559 12.4281 12.4839C12.3203 12.4088 12.2284 12.3131 12.1577 12.2025C12.0869 12.0919 12.0386 11.9684 12.0155 11.8391C11.9925 11.7098 11.9951 11.5772 12.0233 11.4489C12.0515 11.3206 12.1047 11.1991 12.1798 11.0914C12.2549 10.9837 12.3505 10.8918 12.4612 10.821L15.9432 8.59401C16.1665 8.45576 16.4354 8.41097 16.6915 8.46931C16.9476 8.52765 17.1705 8.68444 17.312 8.90578C17.4535 9.12713 17.5022 9.39526 17.4476 9.65222C17.393 9.90917 17.2394 10.1343 17.0202 10.279L13.5392 12.506Z" fill="#4A4A4A"/>
<path d="M18.9025 12.4101C19.0046 12.6512 19.008 12.9228 18.912 13.1665C18.8161 13.4101 18.6283 13.6064 18.3892 13.7131C18.1501 13.8198 17.8786 13.8285 17.6332 13.7372C17.3877 13.646 17.1879 13.4621 17.0765 13.2251L15.5685 9.8451C15.512 9.72476 15.48 9.59437 15.4745 9.46153C15.469 9.32869 15.49 9.19609 15.5363 9.07147C15.5826 8.94685 15.6533 8.83272 15.7443 8.73576C15.8353 8.63879 15.9447 8.56094 16.0661 8.50675C16.1875 8.45256 16.3185 8.42313 16.4514 8.42017C16.5843 8.41721 16.7165 8.44079 16.8402 8.48952C16.9639 8.53825 17.0766 8.61116 17.1718 8.70398C17.267 8.7968 17.3427 8.90767 17.3945 9.0301L18.9025 12.4101Z" fill="#4A4A4A"/>
</svg>
