<svg width="10" height="11" viewBox="0 0 10 11" fill="none" xmlns="http://www.w3.org/2000/svg">
<path d="M9.74794 5.0766L7.73784 6.87457L8.35025 9.56343C8.38404 9.70939 8.37534 9.86246 8.32525 10.0033C8.27516 10.1441 8.18592 10.2664 8.06881 10.3547C7.9517 10.443 7.81198 10.4934 7.66728 10.4994C7.52259 10.5054 7.37942 10.4668 7.25587 10.3886L5.00009 8.94944L2.74297 10.3886C2.61943 10.4664 2.47644 10.5046 2.33199 10.4983C2.18755 10.4921 2.04812 10.4417 1.93125 10.3535C1.81439 10.2653 1.72532 10.1432 1.67526 10.0026C1.6252 9.862 1.61638 9.7092 1.64993 9.56343L2.26457 6.87457L0.254473 5.0766C0.145167 4.97867 0.0661155 4.84953 0.02719 4.70531C-0.0117355 4.56109 -0.00880962 4.40817 0.0356023 4.26566C0.0800142 4.12316 0.163944 3.99737 0.276909 3.90401C0.389875 3.81065 0.52687 3.75386 0.670786 3.74073L3.30625 3.52033L4.32291 0.969918C4.37794 0.830923 4.4716 0.712029 4.59198 0.628354C4.71236 0.544678 4.85403 0.5 4.99897 0.5C5.14391 0.5 5.28558 0.544678 5.40596 0.628354C5.52635 0.712029 5.62001 0.830923 5.67504 0.969918L6.69125 3.52033L9.32671 3.74073C9.47091 3.75338 9.60831 3.80985 9.72169 3.90308C9.83506 3.99631 9.91938 4.12214 9.96407 4.26482C10.0088 4.40751 10.0118 4.56068 9.97291 4.70517C9.93399 4.84965 9.8548 4.97902 9.74526 5.07706L9.74794 5.0766Z" fill="#5168F6"/>
</svg>
