<svg width="18" height="16" viewBox="0 0 18 16" fill="none" xmlns="http://www.w3.org/2000/svg">
<path d="M17.4568 7.14681L13.8571 9.95453L14.9538 14.1535C15.0143 14.3814 14.9987 14.6204 14.909 14.8404C14.8193 15.0603 14.6595 15.2513 14.4498 15.3892C14.24 15.527 13.9898 15.6056 13.7307 15.6151C13.4716 15.6245 13.2152 15.5642 12.9939 15.442L8.95424 13.1946L4.91216 15.442C4.69092 15.5635 4.43484 15.6232 4.17617 15.6134C3.9175 15.6037 3.6678 15.525 3.45852 15.3872C3.24924 15.2494 3.08973 15.0588 3.00008 14.8392C2.91043 14.6197 2.89464 14.3811 2.95472 14.1535L4.05543 9.95453L0.455714 7.14681C0.259968 6.99389 0.118401 6.79223 0.0486923 6.56701C-0.0210162 6.34179 -0.0157764 6.103 0.0637572 5.88046C0.143291 5.65792 0.293593 5.46149 0.495894 5.31571C0.698195 5.16992 0.943528 5.08123 1.20126 5.06073L5.92088 4.71655L7.74154 0.733825C7.84009 0.516769 8.00781 0.331105 8.2234 0.200437C8.43898 0.0697691 8.69268 0 8.95224 0C9.21181 0 9.46551 0.0697691 9.68109 0.200437C9.89667 0.331105 10.0644 0.516769 10.1629 0.733825L11.9828 4.71655L16.7024 5.06073C16.9607 5.08047 17.2067 5.16866 17.4098 5.31425C17.6128 5.45983 17.7638 5.65634 17.8438 5.87915C17.9238 6.10196 17.9293 6.34117 17.8596 6.5668C17.7899 6.79242 17.6481 6.99444 17.452 7.14754L17.4568 7.14681Z" fill="#5168F6"/>
</svg>
