<svg width="20" height="21" viewBox="0 0 20 21" fill="none" xmlns="http://www.w3.org/2000/svg">
<rect y="0.5" width="20" height="20" rx="10" fill="#DDDDDE"/>
<path fill-rule="evenodd" clip-rule="evenodd" d="M6.42064 5.74408C6.0952 5.41864 5.56756 5.41864 5.24212 5.74408C4.91669 6.06951 4.91669 6.59715 5.24212 6.92259L8.8212 10.5017L5.24546 14.0774C4.92002 14.4029 4.92002 14.9305 5.24546 15.2559C5.5709 15.5814 6.09853 15.5814 6.42397 15.2559L9.99971 11.6802L13.5755 15.2559C13.9009 15.5814 14.4285 15.5814 14.754 15.2559C15.0794 14.9305 15.0794 14.4029 14.754 14.0774L11.1782 10.5017L14.7573 6.92259C15.0827 6.59715 15.0827 6.06951 14.7573 5.74408C14.4319 5.41864 13.9042 5.41864 13.5788 5.74408L9.99971 9.32316L6.42064 5.74408Z" fill="#F9F9F9"/>
</svg>
