<svg width="18" height="20" viewBox="0 0 18 20" fill="none" xmlns="http://www.w3.org/2000/svg">
<path d="M5.87417 11.3843L12.135 15.0327M12.1258 4.96766L5.87417 8.616M17.25 3.5835C17.25 5.10228 16.0188 6.3335 14.5 6.3335C12.9812 6.3335 11.75 5.10228 11.75 3.5835C11.75 2.06471 12.9812 0.833496 14.5 0.833496C16.0188 0.833496 17.25 2.06471 17.25 3.5835ZM6.25 10.0002C6.25 11.5189 5.01878 12.7502 3.5 12.7502C1.98122 12.7502 0.75 11.5189 0.75 10.0002C0.75 8.48138 1.98122 7.25016 3.5 7.25016C5.01878 7.25016 6.25 8.48138 6.25 10.0002ZM17.25 16.4168C17.25 17.9356 16.0188 19.1668 14.5 19.1668C12.9812 19.1668 11.75 17.9356 11.75 16.4168C11.75 14.898 12.9812 13.6668 14.5 13.6668C16.0188 13.6668 17.25 14.898 17.25 16.4168Z" stroke="#191919" stroke-width="1.4" stroke-linecap="round" stroke-linejoin="round"/>
</svg>
